<?xml version="1.0" standalone="no"?>
<!DOCTYPE svg PUBLIC "-//W3C//DTD SVG 20010904//EN"
 "http://www.w3.org/TR/2001/REC-SVG-20010904/DTD/svg10.dtd">
<svg version="1.0" xmlns="http://www.w3.org/2000/svg"
 width="358.000000pt" height="400.000000pt" viewBox="0 0 358.000000 400.000000"
 preserveAspectRatio="xMidYMid meet">

<g transform="translate(0.000000,400.000000) scale(0.100000,-0.100000)"
fill="#000000" stroke="none">
<path d="M3000 3460 c-8 -5 -11 -12 -7 -17 5 -4 12 -2 16 5 10 17 41 4 51 -22
7 -16 9 -17 9 -4 1 19 -25 48 -42 48 -7 0 -19 -4 -27 -10z"/>
<path d="M3085 3460 c-3 -6 1 -7 9 -4 14 5 14 2 0 -26 -22 -43 -58 -56 -84
-30 -13 13 -15 20 -7 24 7 2 1 4 -13 3 -19 -2 -24 2 -22 16 2 9 -2 17 -8 17
-5 0 -10 -11 -10 -25 0 -18 5 -25 18 -25 10 0 29 -11 42 -25 18 -19 20 -27 11
-38 -6 -8 -9 -21 -6 -29 10 -26 -30 -51 -70 -45 -46 8 -56 -13 -26 -54 17 -23
19 -33 11 -48 -12 -23 -13 -41 -2 -41 4 0 13 15 20 33 l13 32 16 -35 16 -35 6
30 c5 24 11 30 34 32 22 2 27 -1 23 -12 -3 -8 -1 -15 4 -15 5 0 11 8 13 18 4
15 5 15 6 0 0 -9 -6 -24 -15 -32 -14 -15 -14 -16 5 -16 17 0 21 6 21 32 0 30
0 31 20 13 20 -19 28 -41 10 -30 -5 3 -10 1 -10 -4 0 -6 7 -11 15 -11 18 0 19
14 3 40 -11 16 -8 23 15 48 15 15 27 37 27 48 0 12 -3 15 -8 8 -14 -23 -76
-16 -94 10 -4 6 -8 22 -8 35 0 20 4 23 25 19 14 -3 25 -2 25 3 0 12 -35 20
-54 13 -29 -11 -17 15 14 31 19 10 30 23 30 36 0 13 8 23 21 26 16 4 17 8 7
14 -18 12 -35 11 -43 -1z m-37 -152 c0 -13 2 -32 5 -43 3 -11 6 -22 6 -24 1
-2 7 2 15 8 10 9 16 9 21 1 4 -6 15 -8 26 -5 11 4 19 2 19 -4 0 -6 -4 -11 -10
-11 -5 0 -10 -7 -10 -15 0 -12 -16 -15 -84 -15 -80 0 -86 1 -106 27 -15 20
-18 29 -9 32 7 2 15 -1 17 -8 3 -8 8 -9 17 -1 7 5 21 9 31 9 11 -1 29 -1 42
-1 20 2 21 5 12 23 -7 11 -9 27 -6 35 8 21 14 17 14 -8z"/>
<path d="M3026 3424 c-5 -14 -4 -15 9 -4 17 14 19 20 6 20 -5 0 -12 -7 -15
-16z"/>
<path d="M2985 3350 c-3 -5 1 -10 9 -10 8 0 18 5 21 10 3 6 -1 10 -9 10 -8 0
-18 -4 -21 -10z"/>
<path d="M2615 3141 c-18 -17 -25 -19 -61 -9 -47 13 -78 7 -125 -25 -33 -22
-102 -114 -94 -126 2 -4 -3 -14 -10 -24 -12 -16 -14 -16 -39 4 l-26 20 0 -73
c0 -40 -5 -80 -10 -88 -6 -10 -9 31 -9 119 0 73 -3 136 -6 139 -6 6 -20 -11
-28 -33 -2 -5 -14 -1 -26 9 -33 29 -48 28 -69 -7 -24 -39 -62 -183 -65 -237
l-1 -40 -42 0 c-71 0 -195 -30 -271 -66 -40 -19 -84 -34 -98 -34 -32 0 -32
-16 1 -63 30 -45 26 -57 -11 -33 -37 25 -104 46 -110 37 -5 -9 15 -76 35 -116
12 -25 40 -107 40 -118 0 -5 -4 -5 -10 -2 -5 3 -10 -1 -10 -9 0 -8 5 -18 10
-21 24 -15 7 -22 -21 -8 -16 8 -65 20 -107 25 -89 12 -163 2 -282 -39 -115
-40 -176 -84 -237 -174 -19 -27 -60 -64 -105 -94 -130 -87 -231 -167 -338
-270 -106 -101 -160 -145 -180 -145 -20 0 -10 -16 51 -80 102 -110 175 -204
183 -234 6 -23 9 -27 16 -16 7 12 20 3 59 -40 27 -30 51 -53 55 -50 3 3 -20
33 -50 65 -64 69 -63 63 -19 252 28 117 33 128 159 315 130 194 190 264 262
304 61 34 160 72 229 88 27 6 24 1 -32 -49 -71 -64 -89 -107 -79 -189 13 -112
133 -253 291 -341 28 -15 64 -40 82 -55 44 -39 147 -88 215 -102 48 -10 70 -9
135 4 168 35 196 45 226 80 15 18 36 42 47 53 40 41 51 89 45 193 -4 65 -2 90
4 77 5 -11 10 -32 10 -47 1 -34 18 -46 23 -16 3 20 8 16 40 -27 20 -28 90
-120 155 -205 150 -196 179 -247 193 -336 12 -76 2 -241 -24 -404 -16 -100
-21 -232 -9 -244 4 -4 15 46 24 111 10 65 23 154 29 198 7 44 13 134 14 200 1
190 -30 272 -168 446 -115 143 -161 201 -197 250 -20 28 -47 62 -61 77 -28 30
-58 73 -58 83 0 3 24 0 54 -9 30 -8 61 -12 68 -9 8 2 29 33 48 68 29 56 35 61
44 45 19 -33 68 -86 90 -98 32 -17 187 -11 276 12 43 11 82 20 87 20 18 0 55
-72 49 -96 -4 -13 -2 -24 3 -24 5 0 11 10 13 22 3 20 8 23 43 19 22 -1 43 -8
46 -13 4 -6 8 -5 11 3 3 8 11 10 22 6 16 -6 17 -16 12 -85 -8 -106 -19 -768
-13 -762 3 3 8 124 11 270 11 453 15 528 34 526 9 0 17 7 18 17 1 12 0 13 -3
2 -2 -8 -8 -15 -13 -15 -12 0 -19 49 -7 53 21 7 67 -6 67 -19 0 -7 5 -16 10
-19 6 -4 10 -3 9 2 -5 30 3 43 24 39 14 -2 23 -11 25 -27 4 -27 20 -49 34 -49
5 0 8 6 5 13 -2 6 -8 11 -13 10 -5 -1 -10 10 -10 23 -1 13 2 24 6 24 4 0 10 6
13 13 3 9 -33 11 -167 9 l-171 -3 -18 32 c-10 17 -16 34 -13 36 2 2 41 11 87
19 46 8 100 23 119 32 30 15 35 22 35 52 0 33 -2 35 -37 38 l-37 3 -4 82 -3
82 -2 -85 -2 -85 -43 -30 -42 -30 -160 0 c-181 1 -227 11 -244 53 -25 65 -51
196 -51 262 0 39 -5 102 -11 140 -18 120 19 162 139 157 48 -2 56 1 78 26 16
19 23 36 19 48 -4 11 -2 19 4 19 22 0 11 41 -14 50 -30 11 -34 25 -5 17 11 -3
20 -1 20 5 0 5 5 6 11 2 11 -7 8 10 -13 65 -8 23 -11 24 -91 18 -77 -6 -114
-15 -194 -46 -42 -16 -43 -29 -2 -23 28 4 30 3 21 -15 -12 -21 -41 -48 -45
-42 -8 11 -47 81 -47 85 0 2 4 4 10 4 19 0 100 64 100 80 0 8 7 26 16 39 15
21 22 22 73 17 55 -6 56 -6 76 26 17 27 27 33 57 33 28 0 34 3 26 13 -16 18
-61 15 -83 -7z m-35 -31 c24 -15 6 -21 -26 -8 -29 11 -68 7 -89 -10 -5 -4 -32
-32 -60 -62 -43 -46 -44 -49 -11 -21 21 18 40 30 43 27 9 -8 -7 -25 -55 -57
-26 -18 -42 -26 -35 -19 6 7 9 18 7 25 -8 19 57 98 96 117 38 19 106 23 130 8z
m-401 -74 c8 -9 11 -53 10 -128 -1 -62 0 -122 2 -133 4 -17 -2 -19 -55 -20
-41 0 -60 4 -64 14 -12 30 34 224 64 273 8 13 31 9 43 -6z m42 -23 c-8 -15
-10 -15 -11 -2 0 17 10 32 18 25 2 -3 -1 -13 -7 -23z m-6 -106 c1 -40 4 -90 9
-112 7 -37 6 -39 -8 -21 -12 15 -16 44 -16 120 0 54 3 96 8 92 4 -4 7 -40 7
-79z m382 31 c-3 -8 -6 -5 -6 6 -1 11 2 17 5 13 3 -3 4 -12 1 -19z m33 0 c0
-13 3 -33 6 -45 4 -16 2 -23 -7 -23 -10 0 -14 14 -14 45 0 25 3 45 7 45 5 0 8
-10 8 -22z m60 10 c0 -7 -5 -20 -10 -28 -8 -12 -10 -9 -10 13 0 15 5 27 10 27
6 0 10 -6 10 -12z m-110 -8 c0 -5 -2 -10 -4 -10 -3 0 -8 5 -11 10 -3 6 -1 10
4 10 6 0 11 -4 11 -10z m-275 -46 c7 -21 20 -56 29 -76 13 -31 14 -38 2 -38
-20 0 -32 19 -44 70 -6 25 -14 56 -18 69 -5 17 -4 23 6 19 7 -2 19 -22 25 -44z
m237 21 c6 25 7 24 3 -9 -2 -22 -9 -44 -14 -49 -6 -6 -8 -2 -4 14 5 24 5 24
-11 4 -17 -20 -17 -20 -6 3 8 17 8 27 1 36 -6 7 -8 16 -4 20 4 4 12 -5 17 -21
l10 -28 8 30z m-183 -83 l-1 -37 -23 50 c-32 66 -31 88 0 52 18 -20 25 -39 24
-65z m232 63 c5 4 9 -1 9 -10 0 -11 -5 -15 -14 -12 -7 3 -19 0 -25 -6 -14 -14
-14 -5 1 29 10 21 14 24 16 11 2 -10 8 -15 13 -12z m-140 -97 c-8 -21 -16 -25
-50 -25 -23 0 -41 2 -41 4 0 13 34 62 60 87 16 16 31 34 32 40 1 6 3 -10 5
-35 2 -25 0 -57 -6 -71z m42 74 c-3 -12 -9 -22 -14 -22 -12 0 -11 7 2 32 13
25 20 19 12 -10z m-197 -109 c-6 -20 -60 -56 -69 -47 -3 4 -30 -1 -59 -9 -29
-9 -79 -18 -111 -21 -35 -3 -84 -17 -124 -35 -86 -41 -99 -40 -106 6 -4 20 -4
39 -1 42 3 4 76 6 162 7 115 1 170 5 206 17 27 9 52 14 56 12 3 -2 14 9 25 25
21 31 30 33 21 3z m-234 -21 c6 -6 25 -8 43 -5 20 3 35 1 40 -7 6 -10 -9 -11
-76 -5 -46 4 -111 8 -144 7 -69 -1 -64 4 15 16 67 10 108 8 122 -6z m269 -4
c23 -29 26 -63 3 -54 -9 3 -34 6 -57 6 l-42 0 25 20 c15 11 29 15 35 10 6 -5
17 -5 24 -1 10 6 9 10 -3 14 -9 4 -16 11 -16 17 0 16 10 12 31 -12z m59 -8
c11 -7 12 -12 3 -21 -13 -13 -33 -4 -33 17 0 16 9 18 30 4z m-562 -13 c-27
-10 -27 -13 -21 -64 5 -43 3 -53 -9 -53 -9 0 -37 -9 -63 -21 -25 -11 -47 -19
-48 -17 -1 1 -12 17 -25 35 -25 36 -28 53 -9 53 6 0 26 7 42 16 44 24 139 63
150 63 6 -1 -2 -6 -17 -12z m392 -21 c0 -2 -7 -7 -16 -10 -8 -3 -12 -2 -9 4 6
10 25 14 25 6z m209 -57 c4 -19 5 -43 1 -54 -5 -15 -9 -7 -14 29 -4 27 -10 56
-13 65 -5 12 -3 13 6 5 7 -6 16 -27 20 -45z m-199 38 c0 -2 -11 -18 -25 -37
-42 -57 -31 -151 35 -304 10 -25 17 -46 14 -46 -11 0 -69 43 -106 78 -63 60
-73 137 -26 207 39 56 108 122 108 102z m168 -28 c4 -24 3 -24 -12 -4 -19 24
-20 38 -3 33 6 -3 13 -15 15 -29z m-266 -21 c-11 -18 -35 -46 -52 -63 -18 -16
-40 -46 -50 -66 -11 -20 -34 -49 -51 -64 -32 -26 -78 -49 -85 -42 -11 10 44
95 90 140 64 64 157 139 164 133 2 -3 -5 -20 -16 -38z m216 26 c37 -26 52 -69
93 -262 21 -101 48 -205 61 -231 30 -60 72 -74 225 -74 138 0 229 17 264 49
15 15 37 24 57 24 27 0 32 -4 32 -25 0 -30 -19 -41 -90 -50 -30 -4 -113 -21
-185 -37 -96 -23 -156 -31 -229 -32 l-98 -1 -40 44 c-93 105 -218 383 -218
484 0 23 9 61 20 85 17 37 23 42 52 42 19 0 44 -7 56 -16z m-288 -25 c-94 -76
-116 -97 -146 -145 -19 -30 -37 -67 -40 -84 -12 -57 -34 -23 -34 51 0 51 27
80 133 144 93 55 133 71 87 34z m-155 -32 c-70 -38 -107 -71 -125 -109 l-17
-38 -32 41 c-18 22 -31 41 -30 42 32 18 105 47 134 53 21 4 50 13 64 20 44 23
49 15 6 -9z m-276 -44 c44 -26 74 -54 97 -88 53 -77 42 -119 -35 -146 -50 -18
-77 2 -92 65 -6 28 -21 74 -32 101 -35 90 -38 105 -19 105 10 0 46 -17 81 -37z
m236 -14 c-40 -40 -40 -41 -39 -112 2 -71 -4 -86 -34 -87 -9 0 -10 5 -4 16 5
9 5 32 -2 55 -9 33 -7 45 9 76 17 31 86 93 104 93 3 0 -13 -18 -34 -41z m582
-36 c-3 -10 -5 -4 -5 12 0 17 2 24 5 18 2 -7 2 -21 0 -30z m-367 -45 c0 -36 6
-47 55 -96 30 -30 52 -58 49 -61 -3 -3 -30 -6 -61 -6 -49 0 -58 3 -84 33 -36
40 -36 60 -3 128 30 61 44 61 44 2z m-153 -117 c-34 -51 -47 -55 -47 -15 0 17
10 30 33 44 47 29 49 25 14 -29z m107 -61 c6 -11 26 -16 65 -18 159 -5 186
-14 216 -73 15 -28 14 -29 -31 -71 -55 -52 -91 -69 -124 -62 -25 5 -80 51 -80
65 0 4 26 13 58 19 31 7 68 19 82 27 l25 14 -25 -6 c-135 -36 -148 -36 -188
-11 -20 14 -52 38 -71 54 l-33 30 21 58 c31 81 31 81 55 33 11 -24 25 -50 30
-59z m-549 64 c48 -6 49 -6 25 -19 -14 -7 -37 -11 -52 -8 -46 9 -199 -17 -279
-48 -42 -16 -109 -52 -149 -80 -39 -28 -74 -48 -78 -45 -3 4 23 35 59 69 69
68 140 101 279 131 63 14 90 14 195 0z m368 -57 c10 -20 16 -45 12 -56 -6 -19
-7 -19 -58 3 -48 22 -78 49 -66 60 3 3 15 7 27 9 12 2 28 9 34 15 18 18 31 10
51 -31z m-425 -24 c-52 -55 -66 -90 -80 -195 -10 -81 -9 -103 6 -172 10 -43
35 -112 57 -153 l39 -73 -28 14 c-69 36 -166 132 -210 209 -53 91 -64 153 -38
220 28 74 179 184 256 186 l34 1 -36 -37z m183 21 c21 -11 43 -13 70 -9 21 4
39 3 39 -2 0 -5 -9 -41 -20 -81 -24 -85 -25 -145 -5 -231 9 -35 13 -66 11 -68
-10 -10 -99 61 -138 110 -58 74 -88 144 -90 211 -2 76 9 85 70 62 73 -28 92
-29 37 -2 -37 19 -44 25 -27 25 13 1 37 -6 53 -15z m-271 -3 c-8 -5 -48 -16
-89 -25 -40 -9 -90 -23 -109 -32 -19 -8 -37 -12 -40 -10 -5 6 55 32 128 57 57
18 138 26 110 10z m146 -181 c39 -101 95 -160 228 -244 101 -63 133 -69 202
-36 47 23 84 73 115 155 16 43 25 55 42 55 17 0 1 20 -73 95 -52 52 -91 95
-87 95 18 0 119 -80 148 -117 17 -21 41 -44 53 -52 29 -18 46 -92 53 -236 5
-103 4 -112 -17 -135 -18 -21 -21 -22 -15 -5 14 43 18 193 5 243 -16 70 -29
66 -18 -5 10 -60 4 -195 -10 -248 -11 -41 -104 -105 -153 -105 -91 0 -289 89
-405 183 -94 76 -141 143 -167 236 -14 55 -17 58 -12 21 23 -175 246 -370 504
-440 68 -18 69 -23 8 -34 -121 -22 -231 3 -339 75 -68 47 -90 73 -133 164 -48
102 -59 159 -50 273 8 108 25 163 64 205 l26 28 7 -63 c3 -35 14 -83 24 -108z
m302 101 c17 -12 32 -27 32 -33 0 -24 34 -78 49 -79 10 0 7 -4 -8 -10 -23 -9
-54 -7 -104 8 -32 9 -49 66 -36 119 10 37 14 44 23 33 6 -8 26 -25 44 -38z
m136 -36 c9 -14 15 -25 13 -25 -2 0 -14 11 -27 25 -13 14 -19 25 -13 25 6 0
18 -11 27 -25z m-20 -25 c20 -23 22 -29 10 -34 -36 -14 -55 -6 -70 29 -18 44
-18 43 10 38 14 -3 36 -18 50 -33z m-158 -57 c35 -23 127 -23 170 -1 30 16 32
16 68 -8 l37 -25 -49 -62 c-91 -114 -175 -161 -225 -124 -31 22 -67 209 -51
259 l7 23 8 -22 c4 -12 20 -30 35 -40z m559 -32 c-14 -28 -29 -51 -34 -51 -27
0 -111 25 -111 32 0 5 4 7 8 4 18 -11 85 17 120 49 21 19 38 30 40 25 2 -5 -8
-31 -23 -59z m-1433 -9 c-13 -15 -53 -72 -89 -127 -37 -55 -80 -116 -96 -135
-55 -63 -127 -259 -127 -344 0 -60 -13 -59 -71 6 -30 34 -75 85 -101 112 -63
68 -64 67 17 131 28 22 88 76 135 120 47 45 108 99 135 122 68 55 209 152 214
147 3 -2 -5 -17 -17 -32z m1138 -89 c-1 -19 -29 -54 -73 -92 -41 -35 -55 -41
-93 -41 -28 0 -43 4 -39 10 3 6 16 10 28 10 31 0 80 32 123 80 34 37 54 50 54
33z m55 -373 c-10 -11 -23 -20 -28 -20 -6 0 -2 9 8 20 10 11 23 20 28 20 6 0
2 -9 -8 -20z"/>
<path d="M3013 3030 c-1 -71 2 -105 7 -90 7 22 8 21 9 -12 1 -24 -4 -38 -11
-39 -46 -2 -153 -11 -155 -12 -1 -2 11 -22 27 -45 16 -24 26 -50 23 -58 -5
-13 -7 -13 -14 -2 -7 10 -9 9 -9 -4 0 -28 16 -29 28 -3 8 17 20 25 35 25 20 0
23 -4 19 -25 -2 -15 0 -25 7 -25 6 0 11 11 11 25 0 16 6 25 15 25 8 0 15 -9
15 -19 0 -25 18 -37 33 -22 9 9 8 11 -5 6 -14 -6 -18 -2 -18 14 0 23 19 28 39
9 9 -9 12 -9 7 -1 -3 6 0 14 6 16 7 3 -25 6 -71 6 -87 1 -92 3 -122 54 -9 16
-8 18 8 15 10 -2 17 -11 15 -19 -1 -8 5 -6 15 7 15 18 28 21 85 20 36 0 70 -4
74 -8 4 -4 13 -3 21 4 11 9 18 8 30 -5 16 -16 16 -19 -3 -44 -12 -16 -19 -34
-17 -40 3 -7 16 8 29 33 25 46 30 65 17 62 -5 0 -16 2 -26 7 -10 4 -23 2 -31
-4 -11 -9 -16 -9 -21 -1 -4 7 -17 9 -29 6 -21 -5 -21 -3 -20 112 1 64 -1 95
-5 67 l-5 -50 -6 65 c-6 54 -7 46 -7 -50z"/>
<path d="M2630 3090 c0 -5 5 -10 10 -10 6 0 10 5 10 10 0 6 -4 10 -10 10 -5 0
-10 -4 -10 -10z"/>
<path d="M2492 3050 c-8 -13 -8 -20 -2 -20 6 0 13 7 17 15 9 24 -1 27 -15 5z"/>
<path d="M2555 3050 c-3 -5 -1 -10 4 -10 6 0 11 5 11 10 0 6 -2 10 -4 10 -3 0
-8 -4 -11 -10z"/>
<path d="M2475 2999 c-4 -11 -4 -23 -1 -26 3 -4 6 1 6 10 0 8 5 17 12 19 9 3
9 6 1 11 -7 4 -14 -1 -18 -14z"/>
<path d="M3087 2756 c-6 -16 2 -28 14 -20 12 7 11 34 0 34 -5 0 -11 -6 -14
-14z"/>
<path d="M3003 2685 c0 -22 2 -30 4 -17 2 12 2 30 0 40 -3 9 -5 -1 -4 -23z"/>
<path d="M3022 2675 c0 -16 2 -22 5 -12 2 9 2 23 0 30 -3 6 -5 -1 -5 -18z"/>
<path d="M1550 2650 c-8 -5 -10 -10 -5 -10 6 0 17 5 25 10 8 5 11 10 5 10 -5
0 -17 -5 -25 -10z"/>
<path d="M3016 2608 c-12 -46 -7 -118 9 -124 8 -4 12 -10 9 -15 -3 -5 0 -9 6
-9 7 0 9 7 6 15 -7 19 23 33 34 15 5 -7 10 -8 14 -2 8 14 -21 23 -51 16 l-25
-7 6 67 c7 67 3 85 -8 44z"/>
<path d="M2992 2545 c0 -16 2 -22 5 -12 2 9 2 23 0 30 -3 6 -5 -1 -5 -18z"/>
<path d="M3110 2512 c0 -4 9 -13 21 -20 16 -10 24 -10 35 -1 11 9 14 9 14 0 0
-7 5 -9 10 -6 6 3 10 10 10 15 0 10 -19 8 -39 -4 -9 -6 -17 -3 -23 8 -9 16
-28 22 -28 8z"/>
<path d="M2940 2506 c0 -2 8 -10 18 -17 15 -13 16 -12 3 4 -13 16 -21 21 -21
13z"/>
<path d="M2980 2499 c0 -5 5 -7 10 -4 6 3 10 8 10 11 0 2 -4 4 -10 4 -5 0 -10
-5 -10 -11z"/>
<path d="M2892 2484 c10 -10 20 -16 22 -13 3 3 -5 11 -17 18 -21 13 -21 12 -5
-5z"/>
<path d="M2861 2479 c-1 -9 9 -24 20 -35 12 -10 26 -30 32 -44 8 -20 11 -22
14 -7 7 27 23 20 24 -10 1 -16 3 -21 6 -11 3 11 10 15 21 11 15 -6 15 -5 3 10
-12 15 -10 17 28 17 29 0 41 -4 41 -14 0 -8 4 -17 9 -20 5 -4 7 2 4 13 -3 10
0 22 7 26 18 11 42 -16 37 -42 -4 -20 -1 -23 16 -21 11 2 22 9 25 16 2 7 -2
10 -12 6 -10 -4 -16 -1 -16 7 0 7 3 9 7 6 3 -4 12 1 19 11 11 14 15 15 26 3
11 -12 10 -13 -7 -7 -20 6 -20 6 -1 -9 23 -17 33 -19 41 -6 3 5 -9 19 -26 31
-28 21 -39 22 -149 18 -112 -4 -121 -3 -139 16 -10 12 -21 28 -24 36 -5 13 -6
13 -6 -1z"/>
<path d="M2882 2378 c-18 -18 -15 -23 21 -24 17 -1 24 0 15 3 -10 2 -15 10
-11 19 6 17 -8 19 -25 2z"/>
<path d="M2991 2371 c-10 -6 -10 -10 -1 -16 13 -8 24 -1 19 14 -3 6 -10 7 -18
2z"/>
<path d="M3033 2235 c0 -27 2 -38 4 -22 2 15 2 37 0 50 -2 12 -4 0 -4 -28z"/>
<path d="M3030 2045 c-11 -13 -15 -13 -21 -3 -5 7 -9 8 -9 2 0 -21 14 -24 32
-7 17 15 19 15 34 -3 14 -18 15 -18 4 4 -13 26 -23 28 -40 7z"/>
<path d="M2965 2040 c-4 -6 -11 -7 -17 -4 -7 4 -8 2 -4 -5 6 -9 11 -9 22 0 14
11 18 19 10 19 -3 0 -8 -5 -11 -10z"/>
<path d="M3131 2038 c-1 -20 14 -24 25 -6 4 6 3 8 -4 4 -5 -3 -13 0 -15 6 -3
8 -6 6 -6 -4z"/>
<path d="M3177 2029 c4 -14 11 -18 22 -13 9 3 24 9 35 12 16 4 17 2 7 -19
l-12 -24 21 24 c26 31 13 46 -25 29 -22 -10 -29 -10 -33 0 -7 21 -20 13 -15
-9z"/>
<path d="M2961 1903 c-1 -27 -21 -31 -22 -5 0 10 -2 12 -6 4 -3 -7 -2 -19 1
-27 4 -12 10 -13 31 -3 14 6 25 15 25 20 0 5 -4 7 -9 3 -5 -3 -12 3 -14 12 -4
14 -5 13 -6 -4z"/>
<path d="M2853 1886 c5 -16 27 -19 27 -3 0 7 -7 14 -15 14 -9 0 -14 -5 -12
-11z"/>
<path d="M3095 1876 c11 -8 24 -12 28 -9 11 7 -12 23 -32 23 -11 0 -9 -4 4
-14z"/>
<path d="M3002 1779 c-1 -31 -4 -78 -7 -105 l-5 -49 11 40 c5 22 8 69 6 105
l-3 65 -2 -56z"/>
<path d="M2992 1478 c-1 -80 -5 -155 -8 -165 -5 -16 -5 -17 6 -1 7 11 9 69 7
165 l-3 148 -2 -147z"/>
<path d="M440 1285 c0 -4 7 -19 15 -35 105 -204 367 -398 669 -496 90 -30 254
-63 313 -64 9 0 11 -10 6 -31 l-6 -32 46 5 c26 3 75 -1 109 -8 35 -7 73 -13
86 -14 33 0 27 20 -8 26 -16 4 -30 11 -30 15 0 10 11 8 115 -18 76 -19 85 -26
78 -67 -4 -29 -2 -34 23 -44 16 -7 73 -16 126 -21 54 -5 102 -12 108 -16 5 -3
10 3 10 14 0 12 -11 26 -27 34 -25 14 -22 15 63 22 49 5 141 9 204 10 63 0
120 3 125 5 27 9 -161 15 -240 7 -123 -12 -224 -3 -283 26 -88 45 -234 82
-356 92 -205 17 -399 58 -540 115 -144 58 -157 65 -309 178 -142 104 -204 165
-247 241 -30 52 -50 74 -50 56z"/>
<path d="M2983 1215 c0 -33 2 -45 4 -27 2 18 2 45 0 60 -2 15 -4 0 -4 -33z"/>
<path d="M2982 1110 c0 -19 2 -27 5 -17 2 9 2 25 0 35 -3 9 -5 1 -5 -18z"/>
<path d="M3012 1065 c0 -16 2 -22 5 -12 2 9 2 23 0 30 -3 6 -5 -1 -5 -18z"/>
<path d="M2984 865 c0 -104 2 -146 3 -92 2 54 2 139 0 190 -1 51 -3 7 -3 -98z"/>
<path d="M3012 1000 c0 -19 2 -27 5 -17 2 9 2 25 0 35 -3 9 -5 1 -5 -18z"/>
<path d="M3004 740 c0 -80 2 -112 3 -72 2 39 2 105 0 145 -1 39 -3 7 -3 -73z"/>
</g>
</svg>
