<svg width="219" height="130" viewBox="0 0 219 130" fill="none" xmlns="http://www.w3.org/2000/svg">
<rect x="218.305" y="12.1372" width="106.336" height="195.947" rx="9.5" transform="rotate(90 218.305 12.1372)" fill="white" stroke="black"/>
<mask id="mask0_208_241" style="mask-type:alpha" maskUnits="userSpaceOnUse" x="139" y="33" width="65" height="65">
<rect x="203.049" y="33.301" width="64.0076" height="64.0076" transform="rotate(90 203.049 33.301)" fill="#D9D9D9"/>
</mask>
<g mask="url(#mask0_208_241)">
<path d="M140.909 65.3049L149.71 56.3705V43.969H162.111L171.046 35.168L179.98 43.969H192.382V56.3705L201.183 65.3049L192.382 74.2393V86.6408H179.98L171.046 95.4418L162.111 86.6408H149.71V74.2393L140.909 65.3049ZM155.044 65.3049C155.044 69.7499 156.6 73.5281 159.711 76.6396C162.822 79.7511 166.601 81.3068 171.046 81.3068C175.491 81.3068 179.269 79.7511 182.38 76.6396C185.492 73.5281 187.048 69.7499 187.048 65.3049C187.048 60.8599 185.492 57.0817 182.38 53.9702C179.269 50.8587 175.491 49.303 171.046 49.303C166.601 49.303 162.822 50.8587 159.711 53.9702C156.6 57.0817 155.044 60.8599 155.044 65.3049ZM160.378 65.3049C160.378 62.3712 161.422 59.8598 163.511 57.7707C165.601 55.6815 168.112 54.637 171.046 54.637C173.979 54.637 176.491 55.6815 178.58 57.7707C180.669 59.8598 181.714 62.3712 181.714 65.3049C181.714 68.2386 180.669 70.75 178.58 72.8391C176.491 74.9283 173.979 75.9728 171.046 75.9728C168.112 75.9728 165.601 74.9283 163.511 72.8391C161.422 70.75 160.378 68.2386 160.378 65.3049ZM148.376 65.3049L155.044 71.9724V81.3068H164.378L171.046 87.9743L177.713 81.3068H187.048V71.9724L193.715 65.3049L187.048 58.6374V49.303H177.713L171.046 42.6355L164.378 49.303H155.044V58.6374L148.376 65.3049Z" fill="black"/>
</g>
<rect x="129.195" y="0.805176" width="129" height="129" rx="64.5" transform="rotate(90 129.195 0.805176)" fill="black"/>
<path d="M57.4516 44.7693H56.0515C55.607 44.7693 55.1847 44.8137 54.7846 44.9026C57.3183 47.8363 59.2852 51.1145 60.6853 54.7371C62.0855 58.3598 62.7856 62.1491 62.7856 66.1052C62.7856 70.0612 62.0855 73.8505 60.6853 77.4732C59.2852 81.0958 57.3183 84.374 54.7846 87.3077C55.1847 87.3966 55.607 87.441 56.0515 87.441H57.4516C63.3634 87.441 68.3974 85.363 72.5534 81.207C76.7095 77.0509 78.7875 72.017 78.7875 66.1052C78.7875 60.1933 76.7095 55.1594 72.5534 51.0034C68.3974 46.8473 63.3634 44.7693 57.4516 44.7693ZM57.4516 39.4353C61.141 39.4353 64.608 40.1354 67.8529 41.5356C71.0977 42.9357 73.9203 44.8359 76.3205 47.2362C78.7208 49.6365 80.6211 52.4591 82.0212 55.7039C83.4214 58.9487 84.1215 62.4158 84.1215 66.1052C84.1215 69.7945 83.4214 73.2616 82.0212 76.5064C80.6211 79.7512 78.7208 82.5738 76.3205 84.9741C73.9203 87.3744 71.0977 89.2746 67.8529 90.6748C64.608 92.0749 61.141 92.775 57.4516 92.775C55.0958 92.775 52.7955 92.475 50.5508 91.8749C48.3061 91.2748 46.1614 90.3747 44.1167 89.1746C48.2505 86.7743 51.5065 83.5295 53.8845 79.4401C56.2626 75.3507 57.4516 70.9057 57.4516 66.1052C57.4516 61.3046 56.2626 56.8596 53.8845 52.7702C51.5065 48.6809 48.2505 45.436 44.1167 43.0357C46.1614 41.8356 48.3061 40.9355 50.5508 40.3354C52.7955 39.7353 55.0958 39.4353 57.4516 39.4353Z" fill="white"/>
</svg>
