<svg width="217" height="131" viewBox="0 0 217 131" fill="none" xmlns="http://www.w3.org/2000/svg">
<rect x="183.5" y="11.5" width="108" height="183" rx="9.5" transform="rotate(90 183.5 11.5)" fill="white" stroke="black"/>
<rect x="217" width="131" height="131" rx="65.5" transform="rotate(90 217 0)" fill="black"/>
<mask id="mask0_196_194" style="mask-type:alpha" maskUnits="userSpaceOnUse" x="20" y="33" width="65" height="65">
<rect x="20" y="33" width="65" height="65" fill="#D9D9D9"/>
</mask>
<g mask="url(#mask0_196_194)">
<path d="M45.7292 43.8332H44.3073C43.8559 43.8332 43.4271 43.8783 43.0208 43.9686C45.5937 46.9478 47.5911 50.2767 49.013 53.9556C50.4349 57.6344 51.1458 61.4825 51.1458 65.4998C51.1458 69.5172 50.4349 73.3653 49.013 77.0441C47.5911 80.7229 45.5937 84.0519 43.0208 87.0311C43.4271 87.1214 43.8559 87.1665 44.3073 87.1665H45.7292C51.7326 87.1665 56.8446 85.0563 61.0651 80.8358C65.2856 76.6153 67.3958 71.5033 67.3958 65.4998C67.3958 59.4964 65.2856 54.3844 61.0651 50.1639C56.8446 45.9434 51.7326 43.8332 45.7292 43.8332ZM45.7292 38.4165C49.4757 38.4165 52.9965 39.1274 56.2917 40.5493C59.5868 41.9712 62.4531 43.9009 64.8906 46.3384C67.3281 48.7759 69.2578 51.6422 70.6797 54.9373C72.1016 58.2325 72.8125 61.7533 72.8125 65.4998C72.8125 69.2464 72.1016 72.7672 70.6797 76.0623C69.2578 79.3575 67.3281 82.2238 64.8906 84.6613C62.4531 87.0988 59.5868 89.0285 56.2917 90.4504C52.9965 91.8722 49.4757 92.5832 45.7292 92.5832C43.3368 92.5832 41.0009 92.2785 38.7214 91.6691C36.4418 91.0597 34.2639 90.1457 32.1875 88.9269C36.3854 86.4894 39.6918 83.1943 42.1068 79.0415C44.5217 74.8887 45.7292 70.3748 45.7292 65.4998C45.7292 60.6248 44.5217 56.1109 42.1068 51.9582C39.6918 47.8054 36.3854 44.5103 32.1875 42.0728C34.2639 40.854 36.4418 39.9399 38.7214 39.3306C41.0009 38.7212 43.3368 38.4165 45.7292 38.4165Z" fill="black"/>
</g>
<mask id="mask1_196_194" style="mask-type:alpha" maskUnits="userSpaceOnUse" x="119" y="33" width="65" height="65">
<rect x="184" y="33" width="65" height="65" transform="rotate(90 184 33)" fill="#D9D9D9"/>
</mask>
<g mask="url(#mask1_196_194)">
<path d="M120.896 65.5002L129.834 56.4272V43.8335H142.427L151.5 34.896L160.573 43.8335H173.167V56.4272L182.104 65.5002L173.167 74.5731V87.1668H160.573L151.5 96.1043L142.427 87.1668H129.834V74.5731L120.896 65.5002ZM135.25 65.5002C135.25 70.0141 136.83 73.8509 139.99 77.0106C143.15 80.1703 146.986 81.7502 151.5 81.7502C156.014 81.7502 159.851 80.1703 163.011 77.0106C166.17 73.8509 167.75 70.0141 167.75 65.5002C167.75 60.9863 166.17 57.1495 163.011 53.9897C159.851 50.83 156.014 49.2502 151.5 49.2502C146.986 49.2502 143.15 50.83 139.99 53.9897C136.83 57.1495 135.25 60.9863 135.25 65.5002ZM140.667 65.5002C140.667 62.521 141.728 59.9707 143.849 57.8491C145.971 55.7276 148.521 54.6668 151.5 54.6668C154.479 54.6668 157.03 55.7276 159.151 57.8491C161.273 59.9707 162.334 62.521 162.334 65.5002C162.334 68.4793 161.273 71.0297 159.151 73.1512C157.03 75.2727 154.479 76.3335 151.5 76.3335C148.521 76.3335 145.971 75.2727 143.849 73.1512C141.728 71.0297 140.667 68.4793 140.667 65.5002ZM128.479 65.5002L135.25 72.271V81.7502H144.729L151.5 88.521L158.271 81.7502H167.75V72.271L174.521 65.5002L167.75 58.7293V49.2502H158.271L151.5 42.4793L144.729 49.2502H135.25V58.7293L128.479 65.5002Z" fill="white"/>
</g>
</svg>
