<?xml version="1.0" standalone="no"?>
<!DOCTYPE svg PUBLIC "-//W3C//DTD SVG 20010904//EN"
 "http://www.w3.org/TR/2001/REC-SVG-20010904/DTD/svg10.dtd">
<svg version="1.0" xmlns="http://www.w3.org/2000/svg"
 width="1200.000000pt" height="800.000000pt" viewBox="0 0 1200.000000 800.000000"
 preserveAspectRatio="xMidYMid meet">

<g transform="translate(0.000000,800.000000) scale(0.100000,-0.100000)"
fill="#000000" stroke="none">
<path d="M4015 5889 c-262 -34 -542 -177 -716 -367 -64 -69 -148 -196 -184
-277 -124 -280 -122 -631 5 -902 149 -319 445 -545 815 -624 78 -16 134 -19
435 -19 190 0 351 -4 357 -8 10 -6 13 -182 15 -803 l3 -794 200 0 200 0 3 794
c2 621 5 797 15 803 6 4 171 5 366 2 194 -3 366 -2 382 1 l29 7 -2 186 -3 187
-394 3 -394 2 6 143 c3 78 13 180 22 226 53 273 188 467 401 574 91 46 167 61
309 61 155 0 234 -17 350 -74 229 -113 363 -316 396 -598 20 -167 -18 -364
-94 -495 -65 -111 -184 -212 -321 -271 l-71 -31 -295 -5 -295 -5 0 -190 0
-190 1389 -3 c1181 -2 1403 0 1487 13 305 45 490 213 537 487 12 77 13 109 4
182 -36 289 -258 464 -769 606 -302 84 -420 122 -493 156 -119 56 -160 105
-160 191 1 72 30 127 82 155 l43 23 625 3 c478 2 626 5 632 15 13 21 10 351
-4 365 -15 15 -996 17 -1163 2 -300 -26 -500 -136 -588 -322 -43 -90 -57 -154
-57 -261 0 -146 46 -260 143 -359 126 -128 298 -208 686 -319 355 -101 490
-156 550 -225 94 -107 42 -279 -95 -313 -37 -10 -239 -12 -813 -12 -421 1
-766 3 -768 5 -3 2 13 27 35 56 112 148 192 396 192 595 0 507 -269 941 -692
1116 -241 100 -559 117 -816 43 -398 -114 -680 -427 -772 -862 -16 -70 -23
-150 -27 -290 l-6 -194 -336 5 c-281 3 -346 7 -396 21 -281 82 -466 260 -531
511 -26 104 -24 276 5 380 69 246 257 421 530 492 84 22 122 25 301 28 113 2
213 4 223 5 16 0 17 16 17 190 l0 190 -232 -1 c-128 -1 -264 -6 -303 -10z"/>
<path d="M5717 3040 c-118 -30 -177 -98 -177 -204 0 -92 36 -150 115 -187 69
-32 243 -22 230 13 -4 10 -30 13 -94 13 -75 0 -94 3 -118 21 -104 77 -98 231
12 284 39 19 58 22 120 18 60 -4 75 -2 80 10 7 18 -11 32 -40 32 -11 0 -36 2
-55 5 -19 2 -52 0 -73 -5z"/>
<path d="M6730 3000 c-20 -5 -26 -13 -28 -43 -3 -32 -7 -37 -28 -37 -31 0 -32
-27 -1 -32 21 -3 22 -8 27 -111 5 -99 7 -110 29 -128 15 -12 39 -19 67 -19 37
0 44 3 44 20 0 16 -7 20 -30 20 -41 0 -50 23 -50 124 l0 85 45 7 c59 8 61 32
3 36 -42 3 -43 4 -48 44 -5 37 -7 40 -30 34z"/>
<path d="M6015 2910 c-54 -26 -79 -71 -79 -137 0 -93 60 -143 172 -143 68 0
104 12 96 33 -3 9 -25 11 -77 9 -66 -4 -76 -2 -100 19 -14 13 -29 36 -33 51
l-6 27 118 3 119 3 -2 37 c-6 99 -109 147 -208 98z m134 -46 c37 -47 29 -54
-59 -54 -44 0 -83 0 -87 -1 -18 -2 -12 21 12 50 22 26 34 31 70 31 35 0 48 -5
64 -26z"/>
<path d="M6396 2905 c-34 -23 -36 -23 -36 -5 0 16 -7 20 -31 20 -28 0 -31 -3
-25 -22 3 -13 6 -78 6 -145 l0 -123 25 0 c29 0 28 -4 29 117 1 79 4 95 22 113
30 31 84 36 114 12 23 -19 25 -28 30 -129 l5 -108 28 -3 27 -3 0 106 c0 119
-12 155 -60 180 -43 22 -92 19 -134 -10z"/>
<path d="M7024 2920 c-12 -5 -29 -19 -38 -32 l-16 -22 0 27 c0 22 -4 27 -25
27 l-25 0 0 -145 0 -145 30 0 30 0 0 100 c0 94 2 103 25 125 13 14 36 25 50
25 20 0 25 5 25 25 0 27 -17 31 -56 15z"/>
<path d="M7200 2911 c-52 -27 -80 -74 -80 -134 0 -93 58 -147 160 -147 96 0
152 49 158 138 3 47 0 63 -20 92 -45 67 -145 90 -218 51z m145 -44 c31 -26 44
-94 26 -139 -25 -66 -116 -82 -163 -29 -23 26 -28 41 -28 82 0 43 5 55 29 80
38 37 97 40 136 6z"/>
<path d="M6630 2315 l0 -215 30 0 30 0 0 215 0 215 -30 0 -30 0 0 -215z"/>
<path d="M5572 2502 c-9 -7 -12 -54 -10 -203 l3 -194 28 -3 27 -3 0 80 0 81
43 0 c65 0 118 19 154 55 26 26 33 41 33 73 0 51 -37 97 -88 112 -44 12 -172
13 -190 2z m178 -47 c57 -29 51 -107 -10 -138 -21 -10 -51 -16 -75 -15 l-40 3
-3 69 c-2 38 -1 75 2 83 7 18 89 17 126 -2z"/>
<path d="M7323 2491 c-38 -24 -53 -49 -53 -89 0 -45 33 -78 111 -108 100 -39
123 -80 74 -129 -19 -20 -34 -25 -74 -25 -27 0 -62 5 -77 10 -26 10 -43 1 -44
-23 0 -30 157 -39 214 -12 94 45 85 153 -17 201 -29 13 -57 24 -63 24 -26 0
-64 42 -64 70 0 46 36 64 115 57 52 -5 64 -3 69 10 10 24 1 28 -82 31 -63 2
-83 -1 -109 -17z"/>
<path d="M5950 2387 c-54 -19 -37 -32 34 -29 54 3 67 1 85 -17 34 -34 27 -49
-26 -56 -113 -15 -157 -47 -151 -110 4 -51 43 -80 103 -79 24 0 55 8 69 17 31
21 36 21 36 2 0 -9 9 -15 25 -15 l25 0 0 100 c0 123 -14 164 -64 185 -42 18
-88 18 -136 2z m140 -166 c0 -43 -9 -60 -41 -76 -53 -28 -99 -9 -99 39 0 40
38 62 108 65 29 1 32 -2 32 -28z"/>
<path d="M6832 2389 c-24 -7 -32 -15 -30 -27 3 -9 11 -15 19 -13 8 2 33 6 56
8 49 6 93 -16 93 -46 0 -15 -12 -21 -61 -30 -34 -6 -75 -19 -92 -29 -56 -32
-62 -105 -11 -139 33 -21 105 -21 138 0 31 21 36 21 36 2 0 -10 10 -15 28 -15
l27 0 -3 112 c-2 62 -8 121 -14 131 -26 49 -107 68 -186 46z m138 -177 c0 -63
-65 -101 -116 -67 -56 36 -1 105 84 105 31 0 32 -2 32 -38z"/>
<path d="M7705 2388 c-96 -33 -134 -155 -74 -232 65 -82 209 -79 272 6 28 38
33 114 9 158 -34 64 -129 95 -207 68z m124 -54 c56 -47 50 -147 -13 -185 -39
-24 -63 -24 -103 1 -42 25 -61 82 -43 134 24 74 101 99 159 50z"/>
<path d="M8722 2389 c-24 -7 -32 -15 -30 -27 3 -9 11 -15 19 -13 53 14 111 13
128 -3 33 -30 32 -53 -1 -60 -17 -3 -40 -6 -51 -6 -11 0 -40 -9 -63 -21 -71
-34 -81 -116 -19 -149 34 -18 100 -16 131 5 25 16 28 16 36 1 5 -9 21 -16 35
-16 l25 0 -6 108 c-4 59 -12 119 -17 134 -20 49 -104 71 -187 47z m148 -164
c0 -39 -20 -73 -51 -85 -83 -35 -137 60 -56 95 18 8 49 14 70 15 33 0 37 -3
37 -25z"/>
<path d="M6250 2286 c0 -118 8 -148 45 -172 37 -24 110 -21 146 5 35 26 39 26
39 1 0 -15 7 -20 25 -20 l25 0 0 145 0 145 -30 0 -30 0 0 -100 c0 -94 -2 -103
-25 -125 -17 -18 -35 -25 -64 -25 -60 0 -71 22 -71 147 l0 103 -30 0 -30 0 0
-104z"/>
<path d="M8010 2286 c0 -118 8 -148 45 -172 37 -24 110 -21 146 5 35 26 39 26
39 1 0 -15 7 -20 25 -20 l25 0 0 145 0 145 -30 0 -30 0 0 -100 c0 -94 -2 -103
-25 -125 -17 -18 -35 -25 -64 -25 -60 0 -71 22 -71 147 l0 103 -30 0 -30 0 0
-104z"/>
<path d="M8370 2370 c0 -18 7 -20 85 -20 47 0 85 -2 85 -6 0 -3 -43 -53 -95
-111 -53 -58 -94 -111 -92 -117 2 -7 47 -11 138 -11 112 0 134 2 134 15 0 12
-20 16 -97 20 l-97 5 94 105 c52 58 94 113 95 123 0 15 -12 17 -125 17 -118 0
-125 -1 -125 -20z"/>
</g>
</svg>
