<svg width="787" height="573" viewBox="0 0 787 573" fill="none" xmlns="http://www.w3.org/2000/svg">
<g clip-path="url(#clip0_770_111)">
<path d="M458.322 100.882C473.068 100.882 485.023 88.9281 485.023 74.1817C485.023 59.4353 473.068 47.481 458.322 47.481C443.575 47.481 431.621 59.4353 431.621 74.1817C431.621 88.9281 443.575 100.882 458.322 100.882Z" fill="#F2F2F2"/>
<path d="M665.448 497.152C705.135 466.923 724.091 416.127 712.224 367.67C711.929 366.466 711.618 365.264 711.29 364.066C703.423 335.302 683.959 307.965 655.59 298.775C631.771 291.058 605.771 296.992 580.921 293.923C532.139 287.899 494.32 248.429 467.71 207.104C441.099 165.778 420.648 119.52 385.288 85.3796C327.003 29.1043 231.926 16.9881 159.661 53.6192C87.3967 90.2504 41.3649 171.52 43.328 252.514C45.2912 333.509 93.3743 410.946 163.203 452.031C188.855 467.124 218.524 477.817 248.051 474.075C273.671 470.829 296.95 457.063 322.45 452.976C362.541 446.55 402.377 464.677 437.052 485.799C471.728 506.922 505.223 531.959 544.627 541.752C582.888 551.26 630.29 523.93 665.448 497.152Z" fill="#F2F2F2"/>
<path d="M608.425 55.32C607.555 54.74 606.675 54.19 605.805 53.63C580.656 37.5458 553.701 24.4791 525.495 14.7L518.955 104.92H477.495V1.53C474.885 0.989999 472.255 0.48 469.625 0V104.92H420.355C393.231 104.92 367.219 94.1452 348.039 74.9659C328.86 55.7865 318.085 29.7738 318.085 2.65012C315.445 3.22012 312.825 3.83003 310.205 4.48003V104.92H270.075L263.845 18.89C234.86 30.0063 207.342 44.6248 181.905 62.42C181.465 62.72 181.025 63.03 180.595 63.33C178.385 64.88 176.205 66.46 174.035 68.06V412.25H292.305L290.215 383.3L278.715 224.35H510.305L498.805 383.3L496.715 412.25H613.675V58.8C611.935 57.62 610.185 56.46 608.425 55.32ZM310.205 198.1H276.815L270.645 112.8H310.205V198.1ZM469.625 198.1H413.545V196.41C413.545 195.598 413.385 194.793 413.074 194.043C412.763 193.292 412.307 192.61 411.732 192.036C411.157 191.462 410.474 191.007 409.723 190.697C408.972 190.388 408.168 190.229 407.355 190.23H382.975C382.164 190.23 381.36 190.389 380.61 190.7C379.86 191.01 379.179 191.465 378.605 192.039C378.031 192.613 377.575 193.295 377.265 194.045C376.955 194.795 376.795 195.598 376.795 196.41V198.1H318.085V112.8H469.625V198.1ZM477.495 198.1V112.8H518.385L512.215 198.1H477.495Z" fill="#3F3D56"/>
<path d="M0 434.291C8.68725 444.584 18.0835 454.258 28.12 463.241L758.7 464.241C768.736 455.258 778.133 445.584 786.82 435.291L0 434.291Z" fill="#3F3D56"/>
<path d="M495.43 341.591V427.295C495.431 428.387 495.865 429.435 496.637 430.207C497.409 430.979 498.457 431.414 499.549 431.414H626.553C627.645 431.414 628.693 430.979 629.465 430.207C630.237 429.435 630.671 428.387 630.672 427.295V341.591C630.67 340.5 630.235 339.454 629.463 338.683C628.691 337.912 627.644 337.478 626.553 337.477H499.549C498.457 337.478 497.411 337.912 496.639 338.683C495.867 339.454 495.432 340.5 495.43 341.591Z" fill="#3F3D56"/>
<path d="M498.41 342.658V426.238C498.411 426.822 498.643 427.381 499.056 427.794C499.469 428.206 500.028 428.438 500.612 428.439H625.497C626.081 428.438 626.64 428.206 627.053 427.794C627.465 427.381 627.697 426.822 627.698 426.238V342.658C627.698 342.073 627.467 341.513 627.054 341.099C626.641 340.686 626.081 340.453 625.497 340.452H500.612C500.027 340.453 499.467 340.686 499.055 341.099C498.642 341.513 498.41 342.073 498.41 342.658Z" fill="black"/>
<path d="M492.774 444.01C493.006 444.301 493.302 444.537 493.639 444.698C493.975 444.859 494.344 444.942 494.717 444.94H630.709C631.081 444.939 631.448 444.856 631.784 444.696C632.119 444.535 632.415 444.302 632.649 444.014C632.884 443.725 633.051 443.387 633.138 443.026C633.226 442.664 633.231 442.288 633.155 441.924L631.044 431.897C630.957 431.488 630.768 431.107 630.496 430.79C630.224 430.472 629.877 430.228 629.486 430.079C629.203 429.968 628.902 429.911 628.598 429.911H496.82C496.516 429.911 496.215 429.968 495.932 430.079C495.541 430.228 495.194 430.472 494.922 430.79C494.649 431.107 494.461 431.488 494.374 431.897L492.263 441.924C492.187 442.288 492.194 442.664 492.283 443.025C492.371 443.385 492.539 443.722 492.774 444.01Z" fill="#2F2E41"/>
<path d="M623.933 434.23H627.145C627.414 434.23 627.633 434.012 627.633 433.742V432.206C627.633 431.936 627.414 431.717 627.145 431.717H623.933C623.663 431.717 623.444 431.936 623.444 432.206V433.742C623.444 434.012 623.663 434.23 623.933 434.23Z" fill="#3F3D56"/>
<path d="M615.556 434.23H618.768C619.037 434.23 619.256 434.012 619.256 433.742V432.206C619.256 431.936 619.037 431.717 618.768 431.717H615.556C615.286 431.717 615.067 431.936 615.067 432.206V433.742C615.067 434.012 615.286 434.23 615.556 434.23Z" fill="#3F3D56"/>
<path d="M607.179 434.23H610.391C610.66 434.23 610.879 434.012 610.879 433.742V432.206C610.879 431.936 610.66 431.717 610.391 431.717H607.179C606.909 431.717 606.69 431.936 606.69 432.206V433.742C606.69 434.012 606.909 434.23 607.179 434.23Z" fill="#3F3D56"/>
<path d="M598.802 434.23H602.014C602.283 434.23 602.502 434.012 602.502 433.742V432.206C602.502 431.936 602.283 431.717 602.014 431.717H598.802C598.532 431.717 598.313 431.936 598.313 432.206V433.742C598.313 434.012 598.532 434.23 598.802 434.23Z" fill="#3F3D56"/>
<path d="M590.425 434.23H593.637C593.906 434.23 594.125 434.012 594.125 433.742V432.206C594.125 431.936 593.906 431.717 593.637 431.717H590.425C590.155 431.717 589.937 431.936 589.937 432.206V433.742C589.937 434.012 590.155 434.23 590.425 434.23Z" fill="#3F3D56"/>
<path d="M582.048 434.23H585.26C585.529 434.23 585.748 434.012 585.748 433.742V432.206C585.748 431.936 585.529 431.717 585.26 431.717H582.048C581.778 431.717 581.56 431.936 581.56 432.206V433.742C581.56 434.012 581.778 434.23 582.048 434.23Z" fill="#3F3D56"/>
<path d="M573.671 434.23H576.883C577.153 434.23 577.371 434.012 577.371 433.742V432.206C577.371 431.936 577.153 431.717 576.883 431.717H573.671C573.401 431.717 573.183 431.936 573.183 432.206V433.742C573.183 434.012 573.401 434.23 573.671 434.23Z" fill="#3F3D56"/>
<path d="M565.294 434.23H568.506C568.776 434.23 568.994 434.012 568.994 433.742V432.206C568.994 431.936 568.776 431.717 568.506 431.717H565.294C565.024 431.717 564.806 431.936 564.806 432.206V433.742C564.806 434.012 565.024 434.23 565.294 434.23Z" fill="#3F3D56"/>
<path d="M556.917 434.23H560.129C560.399 434.23 560.617 434.012 560.617 433.742V432.206C560.617 431.936 560.399 431.717 560.129 431.717H556.917C556.647 431.717 556.429 431.936 556.429 432.206V433.742C556.429 434.012 556.647 434.23 556.917 434.23Z" fill="#3F3D56"/>
<path d="M548.54 434.23H551.752C552.022 434.23 552.24 434.012 552.24 433.742V432.206C552.24 431.936 552.022 431.717 551.752 431.717H548.54C548.27 431.717 548.052 431.936 548.052 432.206V433.742C548.052 434.012 548.27 434.23 548.54 434.23Z" fill="#3F3D56"/>
<path d="M540.163 434.23H543.375C543.645 434.23 543.863 434.012 543.863 433.742V432.206C543.863 431.936 543.645 431.717 543.375 431.717H540.163C539.893 431.717 539.675 431.936 539.675 432.206V433.742C539.675 434.012 539.893 434.23 540.163 434.23Z" fill="#3F3D56"/>
<path d="M531.786 434.23H534.998C535.268 434.23 535.486 434.012 535.486 433.742V432.206C535.486 431.936 535.268 431.717 534.998 431.717H531.786C531.516 431.717 531.298 431.936 531.298 432.206V433.742C531.298 434.012 531.516 434.23 531.786 434.23Z" fill="#3F3D56"/>
<path d="M523.409 434.23H526.621C526.891 434.23 527.109 434.012 527.109 433.742V432.206C527.109 431.936 526.891 431.717 526.621 431.717H523.409C523.139 431.717 522.921 431.936 522.921 432.206V433.742C522.921 434.012 523.139 434.23 523.409 434.23Z" fill="#3F3D56"/>
<path d="M515.032 434.23H518.244C518.514 434.23 518.732 434.012 518.732 433.742V432.206C518.732 431.936 518.514 431.717 518.244 431.717H515.032C514.762 431.717 514.544 431.936 514.544 432.206V433.742C514.544 434.012 514.762 434.23 515.032 434.23Z" fill="#3F3D56"/>
<path d="M506.655 434.23H509.867C510.137 434.23 510.355 434.012 510.355 433.742V432.206C510.355 431.936 510.137 431.717 509.867 431.717H506.655C506.386 431.717 506.167 431.936 506.167 432.206V433.742C506.167 434.012 506.386 434.23 506.655 434.23Z" fill="#3F3D56"/>
<path d="M498.276 434.23H501.488C501.758 434.23 501.977 434.012 501.977 433.742V432.206C501.977 431.936 501.758 431.717 501.488 431.717H498.276C498.007 431.717 497.788 431.936 497.788 432.206V433.742C497.788 434.012 498.007 434.23 498.276 434.23Z" fill="#3F3D56"/>
<path d="M624.03 438.419H627.242C627.512 438.419 627.73 438.2 627.73 437.931V436.394C627.73 436.124 627.512 435.906 627.242 435.906H624.03C623.761 435.906 623.542 436.124 623.542 436.394V437.931C623.542 438.2 623.761 438.419 624.03 438.419Z" fill="#3F3D56"/>
<path d="M615.653 438.419H618.865C619.135 438.419 619.354 438.2 619.354 437.931V436.394C619.354 436.124 619.135 435.906 618.865 435.906H615.653C615.384 435.906 615.165 436.124 615.165 436.394V437.931C615.165 438.2 615.384 438.419 615.653 438.419Z" fill="#3F3D56"/>
<path d="M607.276 438.419H610.488C610.758 438.419 610.977 438.2 610.977 437.931V436.394C610.977 436.124 610.758 435.906 610.488 435.906H607.276C607.007 435.906 606.788 436.124 606.788 436.394V437.931C606.788 438.2 607.007 438.419 607.276 438.419Z" fill="#3F3D56"/>
<path d="M598.899 438.419H602.111C602.381 438.419 602.6 438.2 602.6 437.931V436.394C602.6 436.124 602.381 435.906 602.111 435.906H598.899C598.63 435.906 598.411 436.124 598.411 436.394V437.931C598.411 438.2 598.63 438.419 598.899 438.419Z" fill="#3F3D56"/>
<path d="M590.522 438.419H593.734C594.004 438.419 594.223 438.2 594.223 437.931V436.394C594.223 436.124 594.004 435.906 593.734 435.906H590.522C590.253 435.906 590.034 436.124 590.034 436.394V437.931C590.034 438.2 590.253 438.419 590.522 438.419Z" fill="#3F3D56"/>
<path d="M582.145 438.419H585.358C585.627 438.419 585.846 438.2 585.846 437.931V436.394C585.846 436.124 585.627 435.906 585.358 435.906H582.145C581.876 435.906 581.657 436.124 581.657 436.394V437.931C581.657 438.2 581.876 438.419 582.145 438.419Z" fill="#3F3D56"/>
<path d="M573.768 438.419H576.981C577.25 438.419 577.469 438.2 577.469 437.931V436.394C577.469 436.124 577.25 435.906 576.981 435.906H573.768C573.499 435.906 573.28 436.124 573.28 436.394V437.931C573.28 438.2 573.499 438.419 573.768 438.419Z" fill="#3F3D56"/>
<path d="M565.391 438.419H568.604C568.873 438.419 569.092 438.2 569.092 437.931V436.394C569.092 436.124 568.873 435.906 568.604 435.906H565.391C565.122 435.906 564.903 436.124 564.903 436.394V437.931C564.903 438.2 565.122 438.419 565.391 438.419Z" fill="#3F3D56"/>
<path d="M557.015 438.419H560.227C560.496 438.419 560.715 438.2 560.715 437.931V436.394C560.715 436.124 560.496 435.906 560.227 435.906H557.015C556.745 435.906 556.526 436.124 556.526 436.394V437.931C556.526 438.2 556.745 438.419 557.015 438.419Z" fill="#3F3D56"/>
<path d="M548.638 438.419H551.85C552.119 438.419 552.338 438.2 552.338 437.931V436.394C552.338 436.124 552.119 435.906 551.85 435.906H548.638C548.368 435.906 548.149 436.124 548.149 436.394V437.931C548.149 438.2 548.368 438.419 548.638 438.419Z" fill="#3F3D56"/>
<path d="M540.261 438.419H543.473C543.742 438.419 543.961 438.2 543.961 437.931V436.394C543.961 436.124 543.742 435.906 543.473 435.906H540.261C539.991 435.906 539.772 436.124 539.772 436.394V437.931C539.772 438.2 539.991 438.419 540.261 438.419Z" fill="#3F3D56"/>
<path d="M531.884 438.419H535.096C535.365 438.419 535.584 438.2 535.584 437.931V436.394C535.584 436.124 535.365 435.906 535.096 435.906H531.884C531.614 435.906 531.396 436.124 531.396 436.394V437.931C531.396 438.2 531.614 438.419 531.884 438.419Z" fill="#3F3D56"/>
<path d="M523.507 438.419H526.719C526.988 438.419 527.207 438.2 527.207 437.931V436.394C527.207 436.124 526.988 435.906 526.719 435.906H523.507C523.237 435.906 523.019 436.124 523.019 436.394V437.931C523.019 438.2 523.237 438.419 523.507 438.419Z" fill="#3F3D56"/>
<path d="M515.13 438.419H518.342C518.611 438.419 518.83 438.2 518.83 437.931V436.394C518.83 436.124 518.611 435.906 518.342 435.906H515.13C514.86 435.906 514.642 436.124 514.642 436.394V437.931C514.642 438.2 514.86 438.419 515.13 438.419Z" fill="#3F3D56"/>
<path d="M506.753 438.419H509.965C510.235 438.419 510.453 438.2 510.453 437.931V436.394C510.453 436.124 510.235 435.906 509.965 435.906H506.753C506.483 435.906 506.265 436.124 506.265 436.394V437.931C506.265 438.2 506.483 438.419 506.753 438.419Z" fill="#3F3D56"/>
<path d="M498.376 438.419H501.588C501.858 438.419 502.076 438.2 502.076 437.931V436.394C502.076 436.124 501.858 435.906 501.588 435.906H498.376C498.106 435.906 497.888 436.124 497.888 436.394V437.931C497.888 438.2 498.106 438.419 498.376 438.419Z" fill="#3F3D56"/>
<path d="M554.502 443.445H587.033C587.303 443.445 587.521 443.226 587.521 442.957V441.42C587.521 441.151 587.303 440.932 587.033 440.932H554.502C554.232 440.932 554.014 441.151 554.014 441.42V442.957C554.014 443.226 554.232 443.445 554.502 443.445Z" fill="#3F3D56"/>
<path d="M520.036 358.737H517.192C516.33 358.737 515.631 359.436 515.631 360.298C515.631 361.16 516.33 361.859 517.192 361.859H520.036C520.898 361.859 521.597 361.16 521.597 360.298C521.597 359.436 520.898 358.737 520.036 358.737Z" fill="white"/>
<path d="M552.559 358.737H549.715C548.853 358.737 548.154 359.436 548.154 360.298C548.154 361.16 548.853 361.859 549.715 361.859H552.559C553.421 361.859 554.12 361.16 554.12 360.298C554.12 359.436 553.421 358.737 552.559 358.737Z" fill="white"/>
<path d="M561.774 358.737H558.93C558.068 358.737 557.369 359.436 557.369 360.298C557.369 361.16 558.068 361.859 558.93 361.859H561.774C562.636 361.859 563.335 361.16 563.335 360.298C563.335 359.436 562.636 358.737 561.774 358.737Z" fill="white"/>
<path d="M543.712 358.477H526.038C525.175 358.477 524.477 359.176 524.477 360.038C524.477 360.9 525.175 361.599 526.038 361.599H543.712C544.574 361.599 545.273 360.9 545.273 360.038C545.273 359.176 544.574 358.477 543.712 358.477Z" fill="white"/>
<path d="M587.077 358.477H569.403C568.541 358.477 567.842 359.176 567.842 360.038C567.842 360.9 568.541 361.599 569.403 361.599H587.077C587.939 361.599 588.638 360.9 588.638 360.038C588.638 359.176 587.939 358.477 587.077 358.477Z" fill="white"/>
<path d="M528.709 365.784H525.866C525.004 365.784 524.305 366.483 524.305 367.345C524.305 368.207 525.004 368.906 525.866 368.906H528.709C529.572 368.906 530.271 368.207 530.271 367.345C530.271 366.483 529.572 365.784 528.709 365.784Z" fill="white"/>
<path d="M561.231 365.784H558.387C557.525 365.784 556.826 366.483 556.826 367.345C556.826 368.207 557.525 368.906 558.387 368.906H561.231C562.093 368.906 562.792 368.207 562.792 367.345C562.792 366.483 562.093 365.784 561.231 365.784Z" fill="white"/>
<path d="M570.446 365.784H567.602C566.74 365.784 566.041 366.483 566.041 367.345C566.041 368.207 566.74 368.906 567.602 368.906H570.446C571.308 368.906 572.007 368.207 572.007 367.345C572.007 366.483 571.308 365.784 570.446 365.784Z" fill="white"/>
<path d="M552.385 365.523H534.711C533.849 365.523 533.15 366.222 533.15 367.085C533.15 367.947 533.849 368.646 534.711 368.646H552.385C553.248 368.646 553.947 367.947 553.947 367.085C553.947 366.222 553.248 365.523 552.385 365.523Z" fill="white"/>
<path d="M595.749 365.523H578.075C577.213 365.523 576.514 366.222 576.514 367.085C576.514 367.947 577.213 368.646 578.075 368.646H595.749C596.611 368.646 597.31 367.947 597.31 367.085C597.31 366.222 596.611 365.523 595.749 365.523Z" fill="white"/>
<path d="M537.381 372.83H534.538C533.675 372.83 532.977 373.529 532.977 374.391C532.977 375.254 533.675 375.952 534.538 375.952H537.381C538.243 375.952 538.942 375.254 538.942 374.391C538.942 373.529 538.243 372.83 537.381 372.83Z" fill="white"/>
<path d="M569.905 372.83H567.061C566.199 372.83 565.5 373.529 565.5 374.391C565.5 375.254 566.199 375.952 567.061 375.952H569.905C570.767 375.952 571.466 375.254 571.466 374.391C571.466 373.529 570.767 372.83 569.905 372.83Z" fill="white"/>
<path d="M579.12 372.83H576.276C575.414 372.83 574.715 373.529 574.715 374.391C574.715 375.254 575.414 375.952 576.276 375.952H579.12C579.982 375.952 580.681 375.254 580.681 374.391C580.681 373.529 579.982 372.83 579.12 372.83Z" fill="white"/>
<path d="M561.057 372.57H543.383C542.521 372.57 541.822 373.269 541.822 374.131C541.822 374.993 542.521 375.692 543.383 375.692H561.057C561.919 375.692 562.618 374.993 562.618 374.131C562.618 373.269 561.919 372.57 561.057 372.57Z" fill="white"/>
<path d="M604.423 372.57H586.749C585.886 372.57 585.188 373.269 585.188 374.131C585.188 374.993 585.886 375.692 586.749 375.692H604.423C605.285 375.692 605.984 374.993 605.984 374.131C605.984 373.269 605.285 372.57 604.423 372.57Z" fill="white"/>
<path d="M546.055 379.877H543.211C542.349 379.877 541.65 380.576 541.65 381.438C541.65 382.3 542.349 382.999 543.211 382.999H546.055C546.917 382.999 547.616 382.3 547.616 381.438C547.616 380.576 546.917 379.877 546.055 379.877Z" fill="white"/>
<path d="M578.577 379.877H575.733C574.871 379.877 574.172 380.576 574.172 381.438C574.172 382.3 574.871 382.999 575.733 382.999H578.577C579.439 382.999 580.138 382.3 580.138 381.438C580.138 380.576 579.439 379.877 578.577 379.877Z" fill="white"/>
<path d="M587.792 379.877H584.948C584.086 379.877 583.387 380.576 583.387 381.438C583.387 382.3 584.086 382.999 584.948 382.999H587.792C588.654 382.999 589.353 382.3 589.353 381.438C589.353 380.576 588.654 379.877 587.792 379.877Z" fill="white"/>
<path d="M569.731 379.617H552.057C551.195 379.617 550.496 380.316 550.496 381.178C550.496 382.04 551.195 382.739 552.057 382.739H569.731C570.593 382.739 571.292 382.04 571.292 381.178C571.292 380.316 570.593 379.617 569.731 379.617Z" fill="white"/>
<path d="M552.559 407.897H549.715C548.853 407.897 548.154 408.596 548.154 409.459C548.154 410.321 548.853 411.02 549.715 411.02H552.559C553.421 411.02 554.12 410.321 554.12 409.459C554.12 408.596 553.421 407.897 552.559 407.897Z" fill="white"/>
<path d="M561.774 407.897H558.93C558.068 407.897 557.369 408.596 557.369 409.459C557.369 410.321 558.068 411.02 558.93 411.02H561.774C562.636 411.02 563.335 410.321 563.335 409.459C563.335 408.596 562.636 407.897 561.774 407.897Z" fill="white"/>
<path d="M587.077 408.158H569.403C568.541 408.158 567.842 408.857 567.842 409.719C567.842 410.581 568.541 411.28 569.403 411.28H587.077C587.939 411.28 588.638 410.581 588.638 409.719C588.638 408.857 587.939 408.158 587.077 408.158Z" fill="white"/>
<path d="M520.036 407.897H517.192C516.33 407.897 515.631 408.596 515.631 409.459C515.631 410.321 516.33 411.02 517.192 411.02H520.036C520.898 411.02 521.597 410.321 521.597 409.459C521.597 408.596 520.898 407.897 520.036 407.897Z" fill="white"/>
<path d="M543.712 408.158H526.038C525.175 408.158 524.477 408.857 524.477 409.719C524.477 410.581 525.175 411.28 526.038 411.28H543.712C544.574 411.28 545.273 410.581 545.273 409.719C545.273 408.857 544.574 408.158 543.712 408.158Z" fill="white"/>
<path d="M528.709 400.851H525.866C525.004 400.851 524.305 401.55 524.305 402.412C524.305 403.274 525.004 403.973 525.866 403.973H528.709C529.572 403.973 530.271 403.274 530.271 402.412C530.271 401.55 529.572 400.851 528.709 400.851Z" fill="white"/>
<path d="M561.231 400.851H558.387C557.525 400.851 556.826 401.55 556.826 402.412C556.826 403.274 557.525 403.973 558.387 403.973H561.231C562.093 403.973 562.792 403.274 562.792 402.412C562.792 401.55 562.093 400.851 561.231 400.851Z" fill="white"/>
<path d="M570.446 400.851H567.602C566.74 400.851 566.041 401.55 566.041 402.412C566.041 403.274 566.74 403.973 567.602 403.973H570.446C571.308 403.973 572.007 403.274 572.007 402.412C572.007 401.55 571.308 400.851 570.446 400.851Z" fill="white"/>
<path d="M552.385 401.111H534.711C533.849 401.111 533.15 401.81 533.15 402.672C533.15 403.534 533.849 404.233 534.711 404.233H552.385C553.248 404.233 553.947 403.534 553.947 402.672C553.947 401.81 553.248 401.111 552.385 401.111Z" fill="white"/>
<path d="M537.381 393.804H534.538C533.675 393.804 532.977 394.503 532.977 395.365C532.977 396.227 533.675 396.926 534.538 396.926H537.381C538.243 396.926 538.942 396.227 538.942 395.365C538.942 394.503 538.243 393.804 537.381 393.804Z" fill="white"/>
<path d="M569.905 393.804H567.061C566.199 393.804 565.5 394.503 565.5 395.365C565.5 396.227 566.199 396.926 567.061 396.926H569.905C570.767 396.926 571.466 396.227 571.466 395.365C571.466 394.503 570.767 393.804 569.905 393.804Z" fill="white"/>
<path d="M579.12 393.804H576.276C575.414 393.804 574.715 394.503 574.715 395.365C574.715 396.227 575.414 396.926 576.276 396.926H579.12C579.982 396.926 580.681 396.227 580.681 395.365C580.681 394.503 579.982 393.804 579.12 393.804Z" fill="white"/>
<path d="M561.057 394.064H543.383C542.521 394.064 541.822 394.763 541.822 395.626C541.822 396.488 542.521 397.187 543.383 397.187H561.057C561.919 397.187 562.618 396.488 562.618 395.626C562.618 394.763 561.919 394.064 561.057 394.064Z" fill="white"/>
<path d="M546.055 386.758H543.211C542.349 386.758 541.65 387.457 541.65 388.319C541.65 389.181 542.349 389.88 543.211 389.88H546.055C546.917 389.88 547.616 389.181 547.616 388.319C547.616 387.457 546.917 386.758 546.055 386.758Z" fill="white"/>
<path d="M578.577 386.758H575.733C574.871 386.758 574.172 387.457 574.172 388.319C574.172 389.181 574.871 389.88 575.733 389.88H578.577C579.439 389.88 580.138 389.181 580.138 388.319C580.138 387.457 579.439 386.758 578.577 386.758Z" fill="white"/>
<path d="M587.792 386.758H584.948C584.086 386.758 583.387 387.457 583.387 388.319C583.387 389.181 584.086 389.88 584.948 389.88H587.792C588.654 389.88 589.353 389.181 589.353 388.319C589.353 387.457 588.654 386.758 587.792 386.758Z" fill="white"/>
<path d="M569.731 387.018H552.057C551.195 387.018 550.496 387.717 550.496 388.579C550.496 389.441 551.195 390.14 552.057 390.14H569.731C570.593 390.14 571.292 389.441 571.292 388.579C571.292 387.717 570.593 387.018 569.731 387.018Z" fill="white"/>
<path d="M504.918 490.482L491.568 469.38L533.47 435.977L550.766 416.816C553.013 414.327 555.874 412.471 559.063 411.433C562.252 410.396 565.657 410.214 568.939 410.905C572.22 411.596 575.263 413.136 577.763 415.372C580.262 417.607 582.132 420.46 583.184 423.644C584.743 428.363 584.407 433.502 582.249 437.979C580.09 442.455 576.277 445.917 571.614 447.635L544.265 457.71L504.918 490.482Z" fill="#FFB6B6"/>
<path d="M191.689 337.481V440.041H263.539V337.481C263.541 336.743 263.305 336.024 262.868 335.43C262.431 334.837 261.814 334.398 261.109 334.181C260.777 334.071 260.429 334.017 260.079 334.021H195.159C194.704 334.02 194.254 334.109 193.833 334.282C193.412 334.456 193.03 334.71 192.707 335.032C192.385 335.353 192.129 335.735 191.955 336.155C191.78 336.575 191.69 337.026 191.689 337.481ZM219.729 372.721C219.748 370.699 220.565 368.766 222.001 367.343C223.437 365.92 225.377 365.121 227.399 365.121C229.421 365.121 231.362 365.92 232.798 367.343C234.234 368.766 235.051 370.699 235.069 372.721V384.621C235.059 386.648 234.246 388.589 232.809 390.019C231.372 391.449 229.427 392.252 227.399 392.252C225.372 392.252 223.427 391.449 221.99 390.019C220.552 388.589 219.74 386.648 219.729 384.621V372.721Z" fill="#2F2E41"/>
<path d="M191.471 436.761V446.651C191.472 447.163 191.676 447.654 192.037 448.017C192.398 448.381 192.888 448.587 193.401 448.591H261.831C262.344 448.588 262.834 448.383 263.196 448.019C263.558 447.656 263.761 447.164 263.761 446.651V436.761H191.471Z" fill="#3F3D56"/>
<path d="M78.6602 182.961V370.221C78.662 372.607 79.6109 374.895 81.2983 376.583C82.9857 378.27 85.2738 379.219 87.6602 379.221H365.16C367.547 379.219 369.835 378.27 371.522 376.583C373.209 374.895 374.158 372.607 374.16 370.221V182.961C374.154 180.577 373.204 178.292 371.517 176.607C369.83 174.922 367.544 173.974 365.16 173.971H87.6602C85.2759 173.974 82.99 174.922 81.3031 176.607C79.6162 178.292 78.6658 180.577 78.6602 182.961Z" fill="#3F3D56"/>
<path d="M85.1699 185.291V367.911C85.1721 369.186 85.6796 370.408 86.5811 371.309C87.4827 372.211 88.7049 372.719 89.9799 372.721H362.85C364.125 372.719 365.347 372.211 366.249 371.309C367.15 370.408 367.658 369.186 367.66 367.911V185.291C367.66 184.014 367.153 182.79 366.252 181.886C365.35 180.983 364.126 180.473 362.85 180.471H89.9799C88.7034 180.473 87.48 180.983 86.5783 181.886C85.6765 182.79 85.1701 184.014 85.1699 185.291Z" fill="white"/>
<path d="M135.81 447.921C136.088 448.269 136.441 448.55 136.843 448.742C137.245 448.934 137.685 449.033 138.13 449.031H300.47C300.914 449.03 301.353 448.931 301.753 448.74C302.154 448.548 302.507 448.27 302.787 447.925C303.066 447.581 303.266 447.178 303.37 446.746C303.474 446.315 303.481 445.865 303.39 445.431L300.87 433.461C300.766 432.973 300.541 432.518 300.216 432.139C299.891 431.76 299.477 431.469 299.01 431.291C298.673 431.158 298.313 431.09 297.95 431.091H140.64C140.278 431.09 139.918 431.158 139.58 431.291C139.114 431.469 138.699 431.76 138.374 432.139C138.05 432.518 137.825 432.973 137.72 433.461L135.2 445.431C135.111 445.865 135.119 446.314 135.224 446.745C135.33 447.175 135.53 447.577 135.81 447.921Z" fill="#2F2E41"/>
<path d="M353.994 205.628H98.6708C98.4054 205.622 98.1529 205.512 97.9673 205.322C97.7816 205.133 97.6777 204.878 97.6777 204.612C97.6777 204.347 97.7816 204.092 97.9673 203.902C98.1529 203.712 98.4054 203.603 98.6708 203.597H353.994C354.26 203.603 354.512 203.712 354.698 203.902C354.883 204.092 354.987 204.347 354.987 204.612C354.987 204.878 354.883 205.133 354.698 205.322C354.512 205.512 354.26 205.622 353.994 205.628Z" fill="#3F3D56"/>
<path d="M116.052 198.413C119.338 198.413 122.002 195.689 122.002 192.33C122.002 188.97 119.338 186.247 116.052 186.247C112.766 186.247 110.102 188.97 110.102 192.33C110.102 195.689 112.766 198.413 116.052 198.413Z" fill="#3F3D56"/>
<path d="M136.607 198.413C139.893 198.413 142.557 195.689 142.557 192.33C142.557 188.97 139.893 186.247 136.607 186.247C133.32 186.247 130.656 188.97 130.656 192.33C130.656 195.689 133.32 198.413 136.607 198.413Z" fill="#3F3D56"/>
<path d="M157.163 198.413C160.45 198.413 163.114 195.689 163.114 192.33C163.114 188.97 160.45 186.247 157.163 186.247C153.877 186.247 151.213 188.97 151.213 192.33C151.213 195.689 153.877 198.413 157.163 198.413Z" fill="#3F3D56"/>
<path d="M341.617 187.751H327.017C326.728 187.758 326.454 187.877 326.252 188.084C326.05 188.29 325.938 188.567 325.938 188.856C325.938 189.145 326.05 189.422 326.252 189.628C326.454 189.835 326.728 189.954 327.017 189.961H341.617C341.907 189.957 342.185 189.839 342.388 189.632C342.592 189.425 342.707 189.146 342.707 188.856C342.707 188.566 342.592 188.287 342.388 188.08C342.185 187.873 341.907 187.755 341.617 187.751Z" fill="#3F3D56"/>
<path d="M341.616 191.901H327.016C326.728 191.907 326.453 192.027 326.251 192.233C326.049 192.44 325.936 192.717 325.936 193.006C325.936 193.295 326.049 193.572 326.251 193.779C326.453 193.985 326.728 194.104 327.016 194.111H341.616C341.907 194.107 342.185 193.989 342.389 193.783C342.594 193.576 342.708 193.297 342.708 193.006C342.708 192.715 342.594 192.436 342.389 192.229C342.185 192.022 341.907 191.904 341.616 191.901Z" fill="#3F3D56"/>
<path d="M341.617 196.051H327.017C326.728 196.058 326.454 196.177 326.252 196.383C326.05 196.59 325.938 196.867 325.938 197.156C325.938 197.444 326.05 197.722 326.252 197.928C326.454 198.135 326.728 198.254 327.017 198.261H341.617C341.907 198.257 342.185 198.138 342.388 197.932C342.592 197.725 342.707 197.446 342.707 197.156C342.707 196.865 342.592 196.587 342.388 196.38C342.185 196.173 341.907 196.055 341.617 196.051Z" fill="#3F3D56"/>
<path d="M693.596 441.101C694.036 442.384 694.872 443.494 695.983 444.272C697.094 445.05 698.423 445.457 699.779 445.432L726.271 444.75C727.637 444.724 728.958 444.256 730.036 443.416C731.114 442.577 731.891 441.411 732.252 440.093L736.001 400.006C737.331 400.609 738.779 400.906 740.239 400.877C741.507 400.845 742.757 400.564 743.916 400.049C745.076 399.534 746.123 398.796 746.997 397.877C747.871 396.957 748.556 395.875 749.012 394.691C749.468 393.507 749.686 392.245 749.654 390.976C749.623 389.708 749.341 388.458 748.826 387.299C748.312 386.139 747.573 385.092 746.654 384.218C745.735 383.344 744.652 382.659 743.468 382.203C742.284 381.747 741.022 381.529 739.754 381.56C739.17 381.559 738.588 381.619 738.017 381.741C737.397 381.07 736.643 380.536 735.803 380.173C734.964 379.811 734.058 379.629 733.143 379.638L692.393 380.69C692.055 380.703 691.719 380.745 691.388 380.815C690.494 380.982 689.646 381.338 688.902 381.859C688.157 382.381 687.533 383.056 687.072 383.839C686.61 384.622 686.321 385.495 686.225 386.399C686.129 387.303 686.228 388.217 686.514 389.08L693.596 441.101ZM736.769 397.284L739.437 387.732C739.74 386.628 739.747 385.464 739.457 384.357C739.587 384.357 739.701 384.295 739.83 384.295C741.66 384.257 743.429 384.946 744.751 386.211C746.073 387.476 746.839 389.213 746.882 391.042C746.925 392.871 746.241 394.643 744.979 395.968C743.718 397.293 741.983 398.064 740.154 398.112C738.972 398.149 737.801 397.863 736.769 397.284Z" fill="#2F2E41"/>
<path d="M691.387 380.815C692.255 385.779 702.016 389.269 713.753 388.662C724.545 388.165 733.37 384.375 734.987 379.884C734.388 379.707 733.766 379.624 733.142 379.638L692.392 380.69C692.054 380.703 691.718 380.744 691.387 380.815Z" fill="#3F3D56"/>
<path d="M715.904 419.073C715.957 419.059 716.008 419.037 716.055 419.007L721.808 415.241C721.877 415.196 721.934 415.134 721.974 415.061C722.014 414.988 722.034 414.906 722.034 414.823C722.034 414.74 722.014 414.658 721.974 414.585C721.935 414.512 721.878 414.45 721.808 414.405L715.828 410.488C715.773 410.452 715.712 410.427 715.647 410.414C715.583 410.402 715.516 410.402 715.452 410.415C715.387 410.429 715.326 410.454 715.272 410.491C715.217 410.528 715.171 410.576 715.135 410.631C715.098 410.686 715.074 410.747 715.061 410.812C715.049 410.877 715.05 410.943 715.063 411.008C715.077 411.072 715.103 411.133 715.14 411.187C715.178 411.242 715.225 411.288 715.28 411.324L720.621 414.822L715.507 418.17C715.408 418.235 715.335 418.333 715.302 418.446C715.268 418.559 715.276 418.681 715.323 418.789C715.371 418.898 715.455 418.986 715.561 419.038C715.668 419.089 715.789 419.102 715.904 419.073Z" fill="black"/>
<path d="M706.819 419.492C706.915 419.468 707.002 419.415 707.069 419.341C707.135 419.266 707.178 419.174 707.191 419.075C707.205 418.977 707.189 418.876 707.145 418.787C707.101 418.698 707.031 418.623 706.945 418.574L701.642 415.533L706.767 411.726C706.82 411.687 706.864 411.638 706.898 411.582C706.932 411.525 706.954 411.463 706.964 411.398C706.973 411.333 706.97 411.267 706.954 411.203C706.938 411.14 706.909 411.08 706.87 411.027C706.831 410.974 706.782 410.93 706.726 410.896C706.669 410.863 706.607 410.84 706.542 410.831C706.477 410.821 706.411 410.825 706.347 410.841C706.284 410.857 706.224 410.885 706.171 410.924L700.433 415.187C700.366 415.236 700.313 415.301 700.277 415.377C700.242 415.452 700.226 415.535 700.231 415.617C700.236 415.7 700.262 415.781 700.305 415.851C700.349 415.922 700.41 415.98 700.482 416.021L706.447 419.441C706.56 419.506 706.693 419.524 706.819 419.492Z" fill="black"/>
<path d="M715.333 422.373C715.381 422.361 715.427 422.341 715.47 422.315C715.526 422.281 715.575 422.236 715.614 422.183C715.652 422.13 715.68 422.07 715.696 422.006C715.711 421.942 715.714 421.876 715.704 421.811C715.694 421.746 715.671 421.684 715.637 421.628L707.482 408.22C707.413 408.107 707.301 408.026 707.173 407.994C707.044 407.963 706.908 407.985 706.795 408.054C706.682 408.123 706.6 408.234 706.569 408.362C706.538 408.491 706.559 408.627 706.627 408.74L714.783 422.149C714.838 422.24 714.922 422.311 715.021 422.351C715.12 422.392 715.229 422.399 715.333 422.373Z" fill="black"/>
<path d="M256.84 260.827H212.649C210.846 260.827 209.385 262.289 209.385 264.091V268.409C209.385 270.211 210.846 271.673 212.649 271.673H256.84C258.643 271.673 260.104 270.211 260.104 268.409V264.091C260.104 262.289 258.643 260.827 256.84 260.827Z" fill="black"/>
<path d="M282.599 282.519H186.891C185.088 282.519 183.627 283.98 183.627 285.783V290.1C183.627 291.903 185.088 293.364 186.891 293.364H282.599C284.402 293.364 285.863 291.903 285.863 290.1V285.783C285.863 283.98 284.402 282.519 282.599 282.519Z" fill="#E6E6E6"/>
<path d="M282.599 304.21H186.891C185.088 304.21 183.627 305.671 183.627 307.474V311.792C183.627 313.594 185.088 315.056 186.891 315.056H282.599C284.402 315.056 285.863 313.594 285.863 311.792V307.474C285.863 305.671 284.402 304.21 282.599 304.21Z" fill="#E6E6E6"/>
<path d="M290.711 376.846L290.928 377.53L290.939 377.553L297.464 397.391L304.971 420.252L319.093 463.213L319.23 469.887V469.91L320.28 523.594L317.371 530.872L320.645 542.805C320.645 542.805 319.139 524.768 311.062 535.126C306.488 541.012 301.138 547.036 296.746 552.682C303.145 555.272 309.648 557.614 316.253 559.709C317.679 560.166 319.116 560.599 320.553 561.033C320.861 561.124 321.169 561.215 321.477 561.307C343.372 567.781 366.007 571.42 388.828 572.132C390.015 572.167 391.178 572.189 392.308 572.212C392.707 572.224 393.095 572.235 393.483 572.235C394.76 572.247 396.027 572.258 397.304 572.258C399.882 572.258 402.449 572.22 405.004 572.144C423.918 571.611 442.721 569.068 461.096 564.558C460.97 556.972 460.628 548.108 460.138 538.64C459.909 533.997 454.787 528.966 454.479 524.106C454.263 520.456 458.86 517.022 458.62 513.314C457.069 490.488 455.13 499.25 453.692 483.086C453.544 481.5 453.407 479.983 453.282 478.534C452.358 468.153 451.719 461.662 451.719 461.662L457.856 422.979L467.496 362.244L466.754 361.024L465.921 360.613L415.077 335.448L412.317 328.375C411.512 326.337 410.117 324.587 408.309 323.349C406.502 322.111 404.366 321.442 402.175 321.428L368.682 321.291C366.944 321.283 365.229 321.69 363.68 322.477C362.13 323.265 360.791 324.411 359.773 325.82L350.704 338.379L290.711 376.846Z" fill="#3F3D56"/>
<path d="M326.817 453.654L319.23 469.887L314.051 480.975L305.142 527.621L300.682 532.355L296.86 515.596L256.862 524.477C255.55 517.187 256.511 524.723 255.701 516.727C255.929 516.498 256.169 516.27 256.408 516.042C257.047 515.449 257.583 514.89 257.572 514.354C257.116 486.77 258.485 439.827 269.915 411.388C271.705 406.745 274.066 402.342 276.942 398.281C277.17 397.973 277.387 397.665 277.604 397.357C282.874 389.976 286.205 382.709 290.928 377.542V377.53C290.957 377.507 290.984 377.48 291.008 377.45C291.025 377.442 291.041 377.43 291.054 377.416L323.497 360.213L324.889 399.319L325.881 427.427L326.817 453.654Z" fill="#3F3D56"/>
<path d="M443.801 458.264L453.277 478.539L456.584 485.6L465.491 532.242L469.937 536.964L473.767 520.209L475.567 519.84L508.025 513.118L517.486 543.164C519.618 539.611 520.458 535.431 519.864 531.33C519.27 527.23 517.278 523.46 514.225 520.658C513.579 520.074 513.04 519.505 513.056 518.966C513.594 486.523 511.61 427.283 493.688 402.9C487.997 395.163 484.582 387.456 479.613 382.072C479.597 382.056 479.597 382.041 479.582 382.041L467.491 362.243L466.752 361.027L465.922 360.612L443.801 458.264Z" fill="#3F3D56"/>
<path d="M386.396 311.759C411.005 311.759 430.954 291.809 430.954 267.201C430.954 242.592 411.005 222.642 386.396 222.642C361.787 222.642 341.838 242.592 341.838 267.201C341.838 291.809 361.787 311.759 386.396 311.759Z" fill="#FFB6B6"/>
<path d="M446.622 236.077C446.276 235.708 445.86 235.412 445.398 235.208C444.936 235.003 444.437 234.894 443.932 234.887L444.602 233.027C444.82 232.441 444.879 231.807 444.773 231.191C444.666 230.575 444.397 229.998 443.994 229.52C443.592 229.042 443.069 228.679 442.48 228.47C441.89 228.26 441.256 228.211 440.642 228.327L438.202 228.797L438.432 227.167C438.52 226.56 438.448 225.94 438.225 225.369C438.001 224.798 437.632 224.295 437.155 223.909C436.678 223.524 436.108 223.269 435.503 223.171C434.897 223.072 434.277 223.133 433.702 223.347C433.179 223.553 432.616 223.639 432.056 223.599C431.495 223.559 430.95 223.395 430.462 223.117C429.971 222.848 429.545 222.475 429.213 222.024C428.882 221.573 428.653 221.055 428.542 220.507L427.692 216.407L427.602 216.187C423.462 209.287 415.502 204.267 405.762 202.427C397.092 200.777 388.202 201.617 379.632 202.407C376.232 202.727 372.392 203.087 369.192 205.047C366.472 206.727 364.172 210.087 364.642 213.477C356.192 210.887 347.132 216.057 342.642 222.577C337.322 230.337 336.452 240.057 336.312 247.657C335.932 265.637 339.642 280.347 347.312 291.387C347.872 292.187 348.012 293.857 349.122 294.417L348.892 294.047C350.132 294.667 351.392 295.667 350.922 296.737C349.572 299.817 358.542 306.627 364.862 308.877C376.392 312.987 391.722 312.637 402.502 311.157L402.882 308.607C406.772 308.077 409.512 307.067 410.282 305.487C411.642 304.327 412.802 303.287 413.812 302.327L413.822 302.317C413.842 302.297 413.882 302.267 413.902 302.247C418.772 297.577 419.902 294.917 420.412 290.867C420.902 286.897 420.032 282.867 419.142 279.237C437.882 282.137 411.762 259.277 429.222 254.857C429.422 254.795 429.626 254.745 429.832 254.707C430.342 254.587 430.852 254.467 431.342 254.327C433.704 253.686 435.965 252.72 438.062 251.457C442.942 248.487 444.552 244.547 447.072 240.107C447.435 239.475 447.588 238.743 447.507 238.018C447.426 237.293 447.116 236.613 446.622 236.077Z" fill="#2F2E41"/>
<path d="M543.992 461.437C543.982 463.187 543.962 465.637 543.882 468.667C543.872 469.087 543.862 469.517 543.852 469.957C543.722 475.527 543.592 480.197 543.382 485.387C543.372 485.747 543.362 486.097 543.342 486.457C543.062 493.697 542.622 502.127 541.862 515.477C540.452 540.137 537.992 518.867 535.522 527.517C535.402 527.947 535.272 528.457 535.152 529.057C534.778 531.234 534.147 533.359 533.272 535.387C531.962 536.167 530.612 536.917 529.282 537.667C525.492 539.777 521.642 541.807 517.762 543.737C515.582 544.817 513.392 545.877 511.192 546.897C510.842 547.057 510.502 547.217 510.162 547.367C498.896 552.578 487.285 557.008 475.412 560.627C473.092 561.327 470.782 562.007 468.442 562.637C466.002 563.317 463.562 563.957 461.092 564.557C442.717 569.068 423.915 571.612 405.002 572.147C402.452 572.227 399.882 572.257 397.302 572.257C396.022 572.257 394.762 572.247 393.482 572.237C393.092 572.237 392.702 572.227 392.312 572.217C391.182 572.187 390.012 572.167 388.832 572.137C366.011 571.425 343.376 567.785 321.482 561.307L320.552 561.037C319.112 560.597 317.682 560.167 316.252 559.707C309.652 557.617 303.149 555.277 296.742 552.687C291.852 550.717 287.019 548.604 282.242 546.347C282.198 546.335 282.158 546.315 282.122 546.287C281.122 545.827 280.112 545.347 279.112 544.857C278.982 544.787 278.842 544.717 278.702 544.647C274.972 542.827 271.282 540.92 267.632 538.927C264.562 531.877 260.242 530.527 257.562 524.327C256.782 522.485 256.218 520.559 255.882 518.587C255.882 518.567 255.872 518.547 255.872 518.517C256.152 522.237 254.682 511.917 255.862 518.477C255.852 518.357 255.842 518.227 255.832 518.077C255.802 517.717 255.762 517.277 255.702 516.727C252.272 483.237 252.492 444.937 251.002 413.377C250.902 411.337 250.799 409.384 250.692 407.517C250.662 406.897 250.622 406.287 250.582 405.687C250.652 405.507 250.732 405.317 250.822 405.137C250.841 405.085 250.865 405.035 250.892 404.987C250.922 404.925 250.955 404.865 250.992 404.807C251.012 404.777 251.042 404.737 251.062 404.707C251.077 404.673 251.093 404.639 251.112 404.607C251.202 404.467 251.302 404.317 251.412 404.177C251.462 404.117 251.502 404.067 251.552 404.017C251.587 403.966 251.627 403.919 251.672 403.877C251.703 403.829 251.74 403.785 251.782 403.747C251.822 403.707 251.862 403.657 251.912 403.607C251.933 403.575 251.961 403.548 251.992 403.527C252.071 403.436 252.158 403.352 252.252 403.277C252.609 402.949 252.99 402.648 253.392 402.377C253.532 402.287 253.682 402.197 253.822 402.097C254.83 401.494 255.891 400.985 256.992 400.577C257.372 400.437 257.752 400.307 258.162 400.167C258.312 400.127 258.452 400.077 258.602 400.027C258.822 399.957 259.042 399.887 259.272 399.837C260.412 399.497 261.642 399.207 262.972 398.937C263.132 398.907 263.302 398.877 263.472 398.837C263.712 398.787 263.962 398.747 264.212 398.707C264.552 398.647 264.902 398.587 265.252 398.527C268.222 398.057 271.592 397.707 275.312 397.477C275.662 397.457 276.012 397.437 276.362 397.417C276.772 397.397 277.182 397.377 277.602 397.357C277.952 397.337 278.312 397.327 278.672 397.317C279.022 397.297 279.382 397.287 279.752 397.277C280.762 397.247 281.802 397.217 282.862 397.197C285.882 397.137 289.062 397.157 292.402 397.227C293.952 397.267 295.532 397.307 297.152 397.377C297.262 397.377 297.362 397.387 297.462 397.387C298.872 397.437 300.292 397.497 301.752 397.577C302.772 397.627 303.802 397.677 304.832 397.737C305.802 397.797 306.782 397.857 307.772 397.927C308.542 397.967 309.312 398.027 310.092 398.077C310.752 398.127 311.412 398.177 312.072 398.217L312.972 398.277C313.462 398.317 313.952 398.347 314.452 398.397C315.552 398.487 316.652 398.577 317.772 398.667C318.882 398.767 320.012 398.867 321.142 398.967C322.272 399.067 323.412 399.177 324.552 399.287C324.672 399.297 324.782 399.307 324.892 399.317C325.932 399.427 326.972 399.527 328.022 399.637C328.262 399.657 328.512 399.677 328.752 399.707C329.753 399.807 330.774 399.925 331.784 400.033C332.094 400.066 332.402 400.098 332.713 400.132C333.505 400.219 334.285 400.293 335.082 400.387C336.132 400.507 337.202 400.617 338.242 400.757C339.052 400.847 339.862 400.937 340.672 401.037C341.942 401.187 343.232 401.347 344.522 401.517C345.012 401.577 345.502 401.637 345.992 401.707C349.672 402.167 353.392 402.677 357.172 403.207C362.902 404.017 368.722 404.897 374.582 405.847C380.452 406.797 386.355 407.8 392.292 408.857C393.792 409.127 395.292 409.397 396.802 409.677C397.482 409.807 398.162 409.937 398.842 410.067C400.002 410.277 401.162 410.497 402.322 410.717C403.482 410.937 404.642 411.157 405.802 411.387C407.182 411.657 408.572 411.927 409.952 412.197C419.042 413.997 428.082 415.917 436.902 417.927C438.352 418.257 439.802 418.597 441.242 418.927C444.122 419.597 446.975 420.277 449.802 420.967C450.582 421.147 451.352 421.337 452.122 421.527C454.042 422.007 455.962 422.487 457.852 422.977L458.182 423.067C459.572 423.407 460.932 423.757 462.292 424.117C465.502 424.957 468.659 425.807 471.762 426.667C473.822 427.237 475.859 427.814 477.872 428.397C480.882 429.267 483.832 430.147 486.702 431.037C487.412 431.257 488.122 431.477 488.822 431.687C490.922 432.337 492.992 432.997 495.002 433.657C496.602 434.177 498.162 434.707 499.702 435.237C501.242 435.767 502.752 436.297 504.232 436.827C505.182 437.167 506.122 437.527 507.062 437.867C508.412 438.367 509.742 438.867 511.042 439.367C511.442 439.517 511.832 439.677 512.222 439.827C512.472 439.937 512.712 440.027 512.952 440.127C513.422 440.317 513.902 440.497 514.362 440.687C514.832 440.867 515.292 441.057 515.752 441.257C516.202 441.437 516.662 441.627 517.102 441.817C517.552 441.997 517.992 442.187 518.432 442.387C518.802 442.537 519.162 442.697 519.512 442.857C520.222 443.167 520.932 443.477 521.622 443.797C521.962 443.957 522.302 444.107 522.642 444.267L523.422 444.627C523.532 444.687 523.642 444.737 523.752 444.787C524.002 444.907 524.262 445.037 524.512 445.157C525.092 445.427 525.662 445.717 526.222 445.987C526.972 446.367 527.702 446.747 528.402 447.117C529.112 447.497 529.802 447.877 530.462 448.247C530.572 448.307 530.672 448.367 530.782 448.427C530.932 448.507 531.082 448.597 531.232 448.677C531.742 448.967 532.232 449.267 532.722 449.557C533.682 450.147 534.592 450.727 535.442 451.307C535.632 451.437 535.812 451.567 536.002 451.687C536.632 452.137 537.232 452.577 537.792 453.027C537.792 453.037 537.792 453.037 537.802 453.037C537.992 453.177 538.172 453.327 538.352 453.467C538.502 453.607 538.662 453.727 538.812 453.867C539.332 454.317 539.812 454.747 540.252 455.187C540.399 455.323 540.54 455.466 540.672 455.617C540.73 455.665 540.784 455.719 540.832 455.777C541.032 455.977 541.212 456.177 541.382 456.377C541.408 456.404 541.432 456.434 541.452 456.467C541.692 456.747 541.912 457.027 542.122 457.307C542.222 457.447 542.332 457.587 542.422 457.727C542.542 457.897 542.662 458.077 542.762 458.247C542.852 458.387 542.932 458.537 543.012 458.677C543.224 459.037 543.405 459.415 543.552 459.807C543.664 460.072 543.755 460.346 543.822 460.627C543.898 460.892 543.954 461.163 543.992 461.437Z" fill="#2F2E41"/>
<path opacity="0.2" d="M543.992 461.437C543.982 463.187 543.962 465.637 543.882 468.667C543.872 469.087 543.852 469.517 543.842 469.957C543.742 474.207 543.592 479.457 543.382 485.387C543.372 485.747 543.362 486.097 543.342 486.457C543.062 493.697 542.622 502.127 541.862 515.477C540.452 540.137 537.992 518.867 535.522 527.517C528.662 523.297 521.142 518.877 513.102 514.337C511.652 513.517 510.189 512.693 508.712 511.867C492.632 502.897 474.672 493.497 455.922 484.187C455.182 483.817 454.432 483.447 453.692 483.087C410.742 461.857 363.862 441.207 325.882 427.427C318.552 424.767 311.552 422.367 304.972 420.257C291.112 415.827 279.132 412.727 269.912 411.387C260.312 409.987 253.682 410.487 251.002 413.377C250.902 411.337 250.799 409.383 250.692 407.517C250.652 406.897 250.612 406.287 250.572 405.687C250.634 405.522 250.714 405.365 250.792 405.207C250.803 405.183 250.811 405.16 250.822 405.137C250.841 405.085 250.865 405.035 250.892 404.987C250.922 404.925 250.955 404.865 250.992 404.807C251.025 404.736 251.065 404.669 251.112 404.607C251.202 404.467 251.302 404.317 251.412 404.177C251.493 404.072 251.58 403.972 251.672 403.877C251.703 403.829 251.74 403.785 251.782 403.747C251.822 403.707 251.862 403.657 251.912 403.607C251.934 403.575 251.961 403.548 251.992 403.527C252.071 403.436 252.158 403.352 252.252 403.277C252.609 402.948 252.99 402.648 253.392 402.377C253.532 402.287 253.682 402.197 253.822 402.097C254.83 401.494 255.891 400.985 256.992 400.577C257.372 400.437 257.752 400.307 258.162 400.167C258.312 400.127 258.452 400.077 258.602 400.027C258.822 399.957 259.042 399.887 259.272 399.837C260.412 399.497 261.642 399.207 262.972 398.937C263.372 398.857 263.792 398.777 264.212 398.707C264.552 398.647 264.902 398.587 265.252 398.527C268.222 398.057 271.592 397.707 275.312 397.477C275.662 397.457 276.012 397.437 276.362 397.417C276.772 397.397 277.182 397.377 277.602 397.357C277.952 397.337 278.312 397.327 278.672 397.317C279.022 397.297 279.382 397.287 279.752 397.277C280.762 397.247 281.802 397.217 282.862 397.197C285.882 397.147 289.062 397.167 292.402 397.237C293.952 397.267 295.532 397.317 297.152 397.387C297.252 397.387 297.362 397.397 297.462 397.397C298.872 397.437 300.302 397.507 301.752 397.577C302.772 397.627 303.802 397.677 304.832 397.737C305.802 397.797 306.782 397.857 307.772 397.927C308.542 397.967 309.312 398.027 310.092 398.077C310.752 398.127 311.412 398.177 312.072 398.217C312.862 398.277 313.652 398.337 314.452 398.397C315.552 398.487 316.652 398.577 317.772 398.667C318.882 398.767 320.012 398.867 321.142 398.967C322.272 399.067 323.412 399.177 324.552 399.287C324.672 399.297 324.782 399.307 324.892 399.317C325.932 399.427 326.972 399.527 328.022 399.637C333.842 400.227 339.832 400.917 345.992 401.707C349.672 402.177 353.399 402.68 357.172 403.217C362.902 404.027 368.722 404.907 374.582 405.847C380.452 406.797 386.356 407.8 392.292 408.857C393.792 409.127 395.292 409.397 396.802 409.677C398.642 410.017 400.482 410.363 402.322 410.717C403.482 410.937 404.642 411.157 405.802 411.387C407.182 411.657 408.572 411.927 409.952 412.197C419.042 413.997 428.082 415.917 436.902 417.927C438.352 418.257 439.802 418.597 441.242 418.927C444.122 419.597 446.976 420.277 449.802 420.967C450.582 421.157 451.352 421.347 452.122 421.537C454.052 422.017 455.962 422.497 457.852 422.977V422.987C457.962 423.007 458.072 423.037 458.182 423.067C459.562 423.417 460.932 423.767 462.292 424.127C465.502 424.967 468.659 425.813 471.762 426.667C473.822 427.247 475.862 427.817 477.872 428.397C480.882 429.277 483.832 430.157 486.702 431.037C487.412 431.257 488.122 431.477 488.822 431.687C490.922 432.347 492.982 433.003 495.002 433.657C496.602 434.177 498.162 434.707 499.702 435.237C501.242 435.767 502.752 436.297 504.232 436.827C505.192 437.167 506.132 437.517 507.062 437.857C508.422 438.357 509.742 438.857 511.042 439.367C511.442 439.517 511.832 439.677 512.222 439.827C512.952 440.107 513.662 440.397 514.362 440.687C514.832 440.867 515.292 441.057 515.752 441.257C516.202 441.437 516.662 441.627 517.102 441.817C517.552 441.997 517.992 442.187 518.432 442.387C518.802 442.537 519.162 442.697 519.512 442.857C520.222 443.167 520.932 443.477 521.622 443.797C521.962 443.957 522.302 444.107 522.642 444.267L523.422 444.627C523.532 444.687 523.642 444.737 523.752 444.787C524.602 445.187 525.422 445.587 526.222 445.987C526.972 446.367 527.702 446.747 528.402 447.117C529.232 447.557 530.022 447.987 530.782 448.427C530.932 448.507 531.082 448.597 531.232 448.677C531.742 448.967 532.232 449.267 532.722 449.557C533.682 450.147 534.592 450.727 535.442 451.307C536.282 451.887 537.062 452.457 537.792 453.027C537.792 453.037 537.792 453.037 537.802 453.037C538.152 453.317 538.492 453.597 538.812 453.867C539.332 454.317 539.812 454.747 540.252 455.187C540.4 455.322 540.54 455.466 540.672 455.617C540.73 455.665 540.784 455.718 540.832 455.777C541.042 456.007 541.252 456.237 541.452 456.467C541.692 456.747 541.912 457.027 542.122 457.307C542.222 457.447 542.332 457.587 542.422 457.727C542.542 457.897 542.662 458.077 542.762 458.247C542.852 458.387 542.932 458.537 543.012 458.677C543.225 459.037 543.405 459.415 543.552 459.807C543.662 460.073 543.752 460.347 543.822 460.627C543.898 460.892 543.955 461.163 543.992 461.437Z" fill="black"/>
</g>
<defs>
<clipPath id="clip0_770_111">
<rect width="786.82" height="572.258" fill="white"/>
</clipPath>
</defs>
</svg>
