<?xml version="1.0" standalone="no"?>
<!DOCTYPE svg PUBLIC "-//W3C//DTD SVG 20010904//EN"
 "http://www.w3.org/TR/2001/REC-SVG-20010904/DTD/svg10.dtd">
<svg version="1.0" xmlns="http://www.w3.org/2000/svg"
 width="1179.000000pt" height="1280.000000pt" viewBox="0 0 1179.000000 1280.000000"
 preserveAspectRatio="xMidYMid meet">

<g transform="translate(0.000000,1280.000000) scale(0.100000,-0.100000)"
fill="#000000" stroke="none">
<path d="M5811 12769 c-13 -13 -35 -48 -48 -76 -23 -50 -27 -53 -61 -53 -39 0
-152 -29 -152 -39 0 -3 23 -35 51 -70 58 -71 57 -74 -21 -106 -141 -59 -248
-181 -315 -360 -116 -307 -130 -366 -145 -627 -14 -237 -31 -335 -70 -414 -58
-118 -127 -153 -380 -191 -91 -13 -195 -35 -231 -47 -134 -47 -232 -135 -291
-264 -41 -91 -56 -167 -68 -347 -14 -205 -33 -304 -75 -382 -35 -67 -30 -75
23 -43 80 49 122 174 122 368 0 110 12 182 29 182 10 0 31 -189 31 -277 0
-148 -42 -243 -143 -324 -32 -26 -138 -88 -237 -139 -98 -50 -206 -110 -241
-133 -82 -54 -189 -155 -229 -217 -61 -95 -71 -138 -85 -360 -13 -204 -21
-244 -63 -327 -28 -54 -85 -103 -120 -103 -56 0 -112 89 -112 179 0 86 42 103
124 50 27 -16 50 -28 52 -27 2 2 -8 27 -21 56 -51 111 -171 131 -265 46 -141
-128 -126 -407 29 -546 57 -51 141 -87 221 -95 30 -2 61 -7 69 -9 19 -6 -35
-61 -224 -229 -230 -204 -352 -337 -473 -517 -252 -373 -311 -879 -145 -1233
l28 -60 6 235 c6 262 23 382 71 520 59 169 161 313 301 426 129 104 155 110
66 17 -282 -296 -400 -707 -305 -1066 34 -127 83 -226 178 -357 112 -155 142
-218 146 -312 3 -65 1 -85 -18 -120 -31 -62 -76 -105 -145 -141 -54 -28 -69
-31 -150 -32 -82 0 -95 3 -145 31 -101 56 -125 152 -63 250 16 24 33 46 39 48
26 10 81 -31 119 -89 l40 -60 7 40 c13 80 -16 173 -67 213 -66 52 -188 44
-284 -18 -60 -38 -93 -75 -128 -144 -39 -75 -45 -218 -13 -317 45 -139 134
-242 265 -304 359 -172 813 94 1085 635 107 214 156 358 214 638 85 405 92
709 31 1302 -24 223 -24 236 -7 248 9 8 63 47 119 88 101 74 102 75 131 60 74
-38 151 -164 180 -294 25 -111 24 -555 -1 -692 -50 -269 -132 -491 -324 -875
-125 -250 -245 -506 -240 -512 3 -2 27 27 55 64 394 531 696 1508 669 2158 -9
208 -53 408 -117 535 -63 126 -172 242 -244 261 -82 21 -106 31 -106 44 0 8
30 29 67 47 58 28 78 33 143 33 66 0 84 -4 144 -34 91 -45 198 -150 259 -255
75 -129 99 -203 192 -606 27 -117 49 -180 61 -180 11 0 -7 297 -26 431 -42
285 -136 434 -362 574 -238 147 -308 198 -308 222 0 32 145 373 159 373 3 0
24 -35 46 -77 49 -95 122 -171 201 -210 56 -29 152 -58 160 -50 4 4 -57 63
-172 163 -116 102 -164 220 -164 404 1 117 20 232 50 291 12 24 43 72 67 107
57 80 102 180 138 304 20 70 37 109 60 135 l33 38 103 0 c90 -1 118 -5 204
-34 131 -43 357 -142 635 -279 277 -136 309 -147 425 -147 83 0 96 3 165 36
43 20 119 72 179 120 159 129 200 159 279 197 64 30 84 35 154 36 l80 1 24
-60 c35 -84 58 -181 94 -395 84 -498 186 -710 474 -987 181 -174 261 -219 444
-249 53 -8 99 -17 101 -20 2 -2 -16 -48 -42 -101 -175 -374 -374 -1062 -464
-1608 -26 -163 -28 -184 -27 -505 0 -799 111 -1188 463 -1635 89 -113 338
-356 424 -414 76 -51 346 -194 417 -221 l35 -14 -32 -3 c-52 -6 -251 34 -364
73 -57 19 -164 67 -238 105 -74 38 -137 66 -140 64 -9 -10 85 -98 150 -140
128 -83 262 -138 444 -182 91 -22 133 -26 245 -26 150 -1 174 5 418 99 l124
47 56 -55 c125 -120 247 -203 406 -278 214 -100 409 -147 656 -156 161 -7 316
8 460 43 145 35 104 42 -290 46 -295 4 -308 5 -408 31 -271 72 -467 200 -661
431 -82 98 -111 144 -111 179 0 15 14 55 31 89 39 76 50 154 38 264 -22 197
-123 296 -304 297 -63 0 -89 -4 -120 -21 -77 -41 -116 -105 -122 -203 -4 -54
0 -73 19 -110 44 -86 137 -116 208 -67 42 28 53 53 19 43 -13 -4 -40 -10 -60
-13 -32 -5 -39 -2 -54 21 -10 14 -20 46 -22 71 -5 39 -2 47 25 75 36 36 63 38
122 8 96 -49 115 -164 49 -289 -49 -91 -166 -207 -254 -250 -67 -33 -74 -34
-185 -34 -97 0 -136 6 -248 34 -74 18 -136 39 -138 45 -3 7 7 52 22 101 69
231 77 301 45 392 -39 115 -98 166 -316 274 -174 87 -169 91 34 30 172 -51
249 -89 301 -148 54 -62 70 -121 77 -280 3 -73 10 -130 15 -127 4 3 21 29 36
57 26 50 27 58 27 197 0 137 -1 148 -27 203 -56 118 -178 208 -398 290 -297
111 -310 116 -310 127 0 4 39 10 88 13 191 13 339 73 448 182 116 116 161 236
151 410 -15 265 -149 438 -348 453 -161 11 -265 -77 -294 -248 -9 -55 15 -121
54 -147 33 -22 83 -29 115 -17 12 4 6 14 -25 43 -68 65 -45 133 54 160 51 15
85 5 116 -35 68 -87 43 -259 -53 -357 -60 -61 -108 -80 -211 -85 l-90 -4 -52
47 c-34 30 -64 70 -85 112 -28 58 -33 79 -36 164 -5 118 8 201 53 334 42 128
77 202 186 396 205 365 233 514 165 868 -36 187 -39 175 42 144 82 -32 245
-42 356 -23 119 20 230 51 249 68 41 37 4 120 -108 241 -30 32 -55 65 -55 74
0 9 14 16 40 20 89 12 164 79 158 142 -3 28 -9 32 -88 62 -47 17 -173 59 -280
93 -171 53 -222 64 -410 91 -134 18 -249 40 -305 58 -86 27 -165 65 -165 79 0
4 33 23 73 42 57 28 78 45 103 82 30 44 52 114 40 125 -3 3 -22 -9 -43 -27
-55 -49 -153 -88 -153 -62 0 4 16 24 36 43 126 122 174 325 110 464 -33 73
-84 128 -151 163 -41 21 -64 26 -130 26 -101 1 -168 -28 -202 -90 -25 -44 -28
-69 -12 -111 l10 -28 29 46 c38 61 75 89 118 89 47 0 96 -52 118 -127 15 -51
15 -58 -1 -99 -36 -96 -151 -128 -242 -69 -170 112 -235 284 -298 790 -44 350
-100 510 -220 630 -56 56 -85 75 -229 145 -247 121 -282 170 -280 400 1 103 7
150 33 268 31 133 32 147 21 209 -6 37 -31 121 -56 186 -35 93 -47 145 -59
243 -22 174 -40 224 -144 389 l-51 80 43 19 c48 21 97 63 97 83 0 18 -79 53
-138 62 -45 6 -46 7 -64 62 -10 30 -31 70 -46 89 l-28 33 -23 -24z m124 -503
c65 -28 155 -129 155 -175 0 -6 -42 10 -92 34 -51 25 -117 49 -147 55 -82 15
-188 -2 -327 -53 -134 -50 -184 -63 -184 -49 0 16 138 140 180 162 72 37 147
50 265 46 75 -2 123 -8 150 -20z m-22 -213 c25 -38 68 -89 95 -115 54 -52 120
-168 146 -257 13 -43 14 -67 6 -115 -25 -154 -81 -299 -190 -491 -75 -132 -95
-190 -85 -244 23 -134 113 -351 171 -412 22 -23 23 -27 9 -45 -8 -10 -15 -32
-15 -49 0 -18 -10 -39 -24 -52 -13 -13 -26 -36 -29 -52 -4 -18 -14 -32 -27
-36 -11 -3 -34 -18 -50 -32 -22 -18 -39 -24 -58 -21 -15 3 -40 2 -57 -1 -22
-5 -39 0 -64 16 -19 13 -46 23 -62 23 -15 0 -45 11 -65 25 -20 14 -47 25 -60
25 -12 0 -36 14 -52 30 -18 17 -41 30 -55 30 -18 0 -27 7 -31 26 -4 14 -21 34
-39 44 -18 11 -41 36 -50 55 -9 19 -21 35 -27 35 -5 0 -7 13 -3 31 4 22 0 38
-15 59 -20 27 -21 31 -7 69 8 23 32 71 53 108 69 119 91 169 101 234 6 34 15
67 20 72 7 7 41 0 103 -21 51 -18 118 -35 148 -37 l55 -5 -53 19 c-69 24 -147
79 -212 147 -86 91 -122 194 -140 396 -16 182 4 276 70 331 29 25 58 40 230
121 49 22 99 56 140 95 36 33 68 60 71 61 3 0 26 -30 52 -67z m-740 -1492 c15
-12 15 -15 1 -37 -19 -29 -12 -69 15 -84 16 -8 19 -17 14 -43 -4 -29 -1 -37
23 -56 16 -12 33 -37 39 -54 7 -22 22 -38 47 -50 22 -11 38 -27 42 -42 4 -17
23 -33 55 -50 27 -13 52 -33 56 -44 3 -11 26 -29 51 -41 24 -12 49 -30 54 -40
14 -25 72 -50 118 -50 26 0 42 -5 45 -14 11 -29 67 -48 126 -44 48 4 59 9 87
41 25 30 38 37 69 37 52 0 105 52 105 104 0 20 5 36 10 36 6 0 22 11 35 25 20
19 25 35 25 72 0 26 7 57 15 67 22 29 18 59 -10 86 -19 18 -22 26 -14 37 13
15 62 17 89 3 10 -6 71 -19 135 -30 122 -20 217 -60 223 -93 2 -11 -32 -33
-120 -76 -104 -51 -142 -76 -242 -163 -174 -151 -234 -195 -304 -223 -82 -33
-159 -33 -258 0 -105 35 -139 54 -489 263 -170 102 -334 196 -364 210 -76 35
-162 39 -280 13 -52 -11 -96 -19 -98 -17 -9 9 50 110 88 151 72 78 136 96 419
119 84 7 177 1 193 -13z m3162 -2184 c72 -25 182 -63 245 -85 63 -23 129 -44
145 -47 l30 -7 -32 -28 c-39 -35 -89 -50 -170 -50 l-63 0 25 -67 c14 -36 42
-86 63 -110 91 -107 113 -137 110 -152 -2 -9 -32 -25 -78 -40 -65 -21 -94 -24
-220 -25 -143 -1 -146 -1 -200 29 -72 40 -241 203 -285 275 -65 107 -68 209
-9 288 46 60 85 73 204 69 94 -4 119 -9 235 -50z m-4489 24 c207 -94 80 -452
-216 -607 -50 -26 -64 -29 -145 -27 -141 2 -359 38 -388 63 -4 4 33 43 82 88
97 89 135 148 129 204 l-3 33 -80 6 c-92 7 -150 28 -160 58 -10 32 0 38 64 39
67 1 178 36 285 89 139 70 341 95 432 54z"/>
<path d="M6576 9530 c-93 -127 -163 -166 -311 -177 -97 -7 -139 5 -239 65 -87
52 -151 68 -214 53 -26 -6 -119 -47 -207 -91 -230 -116 -264 -120 -443 -56
-41 14 -76 26 -78 26 -11 0 -1 -25 23 -56 35 -47 97 -82 167 -95 109 -20 272
39 475 171 59 38 118 70 131 70 24 0 85 -32 160 -86 92 -65 129 -78 215 -79
99 0 149 18 250 90 41 30 75 50 75 44 0 -35 -39 -186 -81 -316 -61 -186 -79
-267 -79 -358 0 -151 51 -307 188 -575 272 -532 283 -555 353 -795 68 -231
100 -538 80 -769 -21 -257 -37 -326 -156 -681 -134 -401 -178 -613 -194 -941
-21 -410 46 -1134 139 -1493 35 -135 96 -268 115 -250 3 4 -14 98 -39 210 -57
261 -73 350 -86 478 -13 137 -13 214 1 209 16 -5 43 -79 100 -277 90 -308 208
-563 379 -819 120 -178 210 -292 374 -471 150 -165 195 -219 210 -250 9 -21 6
-27 -27 -56 -93 -80 -233 -134 -369 -142 -157 -9 -278 25 -392 113 -111 85
-378 464 -513 729 -178 351 -279 668 -335 1063 -21 145 -23 190 -22 592 l1
435 -29 -90 c-136 -425 -220 -972 -221 -1435 0 -348 25 -480 169 -895 52 -148
99 -279 104 -290 24 -48 -2 151 -41 305 -125 504 -144 715 -81 901 33 95 41
84 122 -146 65 -186 123 -315 207 -464 115 -203 154 -253 405 -524 71 -76 142
-156 158 -178 27 -38 28 -42 15 -78 -58 -166 -250 -393 -411 -490 -135 -80
-243 -104 -516 -117 -82 -3 -148 -10 -148 -14 0 -4 28 -15 63 -25 283 -80 738
58 955 290 34 35 73 85 88 110 22 38 30 44 48 39 38 -12 99 -45 229 -126 257
-159 447 -218 703 -218 113 0 184 11 241 37 l38 17 -110 8 c-367 27 -575 107
-827 316 -43 35 -78 68 -78 74 0 7 35 9 109 4 126 -8 260 6 340 35 116 43 151
36 301 -61 181 -116 386 -198 615 -248 163 -35 407 -36 595 -3 328 57 634 164
845 296 71 44 128 95 107 95 -7 0 -76 -25 -155 -56 -508 -200 -660 -238 -962
-238 -432 -1 -788 130 -1128 414 -447 374 -839 1083 -995 1805 -126 579 -123
1391 7 1921 26 104 78 256 99 289 14 20 20 -96 21 -368 1 -153 6 -333 12 -400
26 -295 102 -543 229 -744 37 -58 142 -192 152 -193 10 0 -32 98 -111 260 -39
80 -78 168 -87 195 -44 140 -56 192 -79 325 -62 367 -60 713 6 1280 41 359 76
553 175 975 56 236 84 370 84 400 0 20 -13 27 -106 59 -227 79 -322 143 -453
305 -18 23 -35 40 -38 38 -8 -8 36 -87 107 -192 37 -55 75 -114 83 -131 27
-53 34 -141 29 -368 -3 -148 -1 -217 6 -212 13 8 28 77 42 186 15 117 27 157
61 212 35 54 54 64 84 44 34 -22 38 -58 16 -150 -11 -45 -25 -123 -31 -172 -7
-49 -27 -181 -45 -294 -18 -113 -37 -242 -40 -287 -4 -46 -10 -83 -14 -83 -3
0 -20 56 -38 125 -36 143 -94 293 -201 520 -284 606 -327 711 -378 920 -22 90
-27 133 -27 240 0 113 5 157 41 335 50 252 76 480 54 480 -4 0 -34 -36 -66
-80z"/>
<path d="M4710 9574 c0 -45 45 -246 84 -375 51 -171 66 -256 66 -376 0 -109
-6 -153 -20 -153 -4 0 -22 37 -41 83 -51 128 -74 170 -118 210 -40 36 -99 72
-107 64 -2 -2 23 -59 57 -126 l62 -122 -12 -67 c-33 -172 -31 -457 4 -730 38
-290 116 -748 171 -1004 115 -535 230 -839 458 -1217 108 -178 145 -252 184
-361 129 -367 118 -782 -35 -1309 -212 -734 -720 -1621 -1280 -2236 -119 -131
-283 -287 -378 -360 -33 -26 -61 -50 -63 -54 -1 -4 28 -16 65 -27 109 -31 299
-26 428 10 129 35 333 136 454 223 122 87 319 278 434 418 314 384 541 881
588 1293 7 53 24 153 40 222 29 127 57 288 81 460 8 60 13 202 13 385 0 414
-20 521 -155 820 -119 266 -164 400 -201 600 -12 66 -25 124 -29 129 -19 20
-44 -47 -48 -130 -3 -46 -8 -84 -11 -84 -16 0 -71 68 -90 111 -48 109 -71 305
-71 613 0 189 -9 346 -19 346 -3 0 -25 -91 -49 -203 -24 -111 -48 -206 -53
-211 -11 -13 -78 131 -118 256 -34 107 -74 295 -91 428 -19 145 -24 414 -11
580 20 251 41 349 157 744 111 377 131 483 103 539 -6 12 -57 67 -113 122
-130 127 -186 207 -224 317 -38 106 -63 157 -91 182 -21 19 -21 19 -21 -10z
m670 -6483 c0 -5 -13 -62 -30 -125 -60 -232 -211 -565 -355 -781 -151 -228
-465 -485 -733 -601 -84 -36 -142 -52 -142 -38 0 5 30 32 67 59 97 73 341 313
470 461 245 282 475 613 638 919 26 50 52 96 58 103 11 14 27 16 27 3z"/>
<path d="M5601 8838 c134 -131 319 -350 436 -518 147 -212 264 -443 443 -877
23 -57 45 -103 47 -103 9 0 -7 91 -37 210 -46 184 -105 341 -210 560 -105 220
-120 260 -96 260 25 0 68 -22 122 -62 65 -49 80 -49 55 0 -64 123 -235 283
-439 411 -99 62 -383 211 -402 211 -8 0 29 -42 81 -92z"/>
<path d="M5523 8455 c4 -9 101 -150 215 -311 233 -331 312 -457 414 -659 116
-230 161 -337 264 -634 66 -191 111 -298 120 -289 8 8 -14 172 -37 273 -66
291 -221 672 -373 920 -195 317 -447 623 -577 699 -30 18 -32 18 -26 1z"/>
<path d="M4130 8384 c0 -5 25 -77 56 -159 163 -433 173 -656 58 -1269 -28
-152 -28 -141 -10 -127 22 19 72 145 100 256 48 188 60 286 60 500 0 181 -3
212 -28 325 -47 213 -115 366 -198 447 -21 20 -38 33 -38 27z"/>
<path d="M5932 7059 c6 -16 53 -117 105 -222 52 -106 108 -226 124 -267 41
-104 84 -278 111 -450 20 -129 23 -177 21 -433 -1 -159 1 -286 4 -283 7 7 29
114 59 286 34 192 42 435 21 576 -32 203 -121 420 -245 594 -66 93 -187 230
-203 230 -4 0 -3 -14 3 -31z"/>
<path d="M4459 6843 c-19 -32 -57 -112 -83 -178 -117 -291 -267 -558 -495
-883 -153 -217 -256 -337 -471 -551 -329 -326 -583 -509 -965 -696 -315 -153
-606 -255 -970 -338 -236 -55 -331 -66 -695 -88 -102 -6 -189 -15 -195 -20 -5
-5 -6 -9 -3 -9 3 0 50 -10 104 -22 86 -19 129 -22 329 -22 250 0 347 10 590
65 540 120 1136 375 1533 656 270 191 552 470 770 762 284 380 486 813 568
1220 32 160 29 179 -17 104z"/>
<path d="M4570 6508 c-5 -13 -35 -95 -66 -183 -173 -493 -339 -841 -571 -1194
-379 -579 -799 -988 -1233 -1202 -248 -122 -449 -175 -700 -186 -176 -7 -314
8 -528 59 -203 48 -191 50 -321 -56 -215 -179 -459 -307 -702 -369 -89 -23
-165 -35 -359 -56 l-75 -8 49 -23 c74 -34 180 -46 284 -32 194 26 392 91 528
174 31 18 106 77 167 130 62 55 121 98 132 98 11 0 52 -20 90 -44 215 -137
302 -182 435 -225 217 -70 458 -89 656 -50 127 24 284 92 263 113 -3 3 -63 -4
-135 -15 -177 -28 -335 -29 -440 -1 -104 27 -180 60 -168 72 13 13 205 67 304
86 253 48 490 159 766 360 299 218 511 419 898 854 71 80 163 180 205 224 74
76 76 78 79 50 12 -102 -97 -357 -253 -593 -163 -245 -340 -438 -575 -626 -91
-73 -174 -143 -185 -155 -18 -21 -16 -21 30 5 385 220 599 394 782 635 294
390 539 1026 634 1645 20 129 39 535 25 535 -3 0 -11 -10 -16 -22z"/>
<path d="M11240 6400 c-15 -15 -20 -33 -20 -73 0 -65 16 -90 80 -122 56 -28
129 -33 239 -14 79 14 115 31 137 64 23 36 23 100 0 122 -18 17 -18 17 -12
-17 14 -81 -31 -129 -142 -150 -72 -13 -216 13 -249 46 -27 27 -31 84 -8 124
25 44 11 56 -25 20z"/>
<path d="M4940 5360 c0 -425 -15 -637 -61 -910 -51 -298 -138 -568 -263 -818
-84 -167 -163 -277 -316 -437 -77 -80 -140 -150 -140 -156 0 -17 29 -9 105 30
344 178 702 618 884 1086 74 190 149 534 112 511 -17 -11 -49 -78 -87 -182
-18 -52 -45 -111 -58 -132 -27 -43 -93 -102 -113 -102 -18 0 -17 314 2 545 17
211 19 456 5 575 -13 106 -48 279 -60 299 -6 10 -10 -108 -10 -309z"/>
<path d="M4548 4778 c-26 -73 -61 -180 -79 -238 -67 -228 -116 -357 -196 -515
-164 -327 -415 -653 -643 -835 -268 -213 -559 -362 -842 -429 -202 -47 -291
-56 -573 -56 -256 1 -277 2 -400 28 -71 15 -164 30 -205 34 l-76 6 -109 -110
c-121 -122 -200 -174 -332 -223 -147 -53 -257 -71 -482 -77 -199 -6 -204 -6
-182 -24 12 -10 48 -28 79 -39 327 -124 813 -7 1111 268 45 41 88 72 100 72
11 0 78 -9 148 -20 371 -56 445 -63 663 -63 197 0 225 2 339 27 275 61 501
172 763 376 241 188 449 458 633 821 126 249 199 441 265 694 36 142 76 384
68 420 -1 9 -24 -44 -50 -117z"/>
<path d="M7116 4720 c3 -30 19 -106 35 -167 133 -519 481 -1017 873 -1247 229
-135 412 -183 670 -173 158 5 236 24 413 97 175 73 232 92 255 86 14 -3 42
-33 68 -72 151 -224 499 -412 906 -490 115 -22 169 -27 314 -28 254 -1 437 36
632 127 72 34 164 95 156 103 -3 2 -86 -18 -186 -45 -299 -82 -326 -86 -522
-85 -158 0 -186 3 -290 28 -63 16 -146 40 -185 53 -108 39 -291 137 -386 208
-91 68 -263 234 -339 329 -25 30 -52 55 -61 56 -8 0 -60 -30 -115 -66 -220
-145 -401 -212 -595 -221 -250 -12 -465 55 -714 223 -338 227 -668 671 -823
1109 -40 114 -69 176 -97 210 -15 19 -16 17 -9 -35z"/>
<path d="M3226 2410 c-113 -93 -207 -131 -390 -155 -277 -37 -253 -73 41 -62
130 4 146 7 277 50 l139 46 76 -53 c165 -115 269 -155 419 -163 56 -3 102 -3
102 0 0 7 -121 81 -241 146 -53 29 -151 95 -218 147 -67 52 -127 94 -134 93
-7 0 -39 -22 -71 -49z"/>
<path d="M1585 2000 c-164 -116 -228 -142 -422 -170 -73 -10 -145 -26 -160
-34 l-28 -14 40 -9 c22 -4 103 -8 180 -8 l140 1 140 47 c77 26 146 47 153 47
8 0 45 -22 82 -50 82 -61 191 -111 285 -133 78 -18 225 -30 225 -18 0 4 -51
33 -112 66 -194 100 -288 164 -371 247 -43 43 -79 78 -80 78 -1 0 -34 -22 -72
-50z"/>
</g>
</svg>
